<?xml version="1.0" standalone="no"?>
<!DOCTYPE svg PUBLIC "-//W3C//DTD SVG 1.1//EN" "http://www.w3.org/Graphics/SVG/1.1/DTD/svg11.dtd" >
<svg>
<metadata>
Created by FontForge 20090622 at Thu May  4 16:35:51 2017
 By deploy user
(c) OurType, 2005. All rights reserved. SansaPro is a design by Fred Smeijers
</metadata>
<defs>
<font id="SansaPro-SemiBold" horiz-adv-x="625" >
  <font-face 
    font-family="Sansa Pro SemiBold"
    font-weight="600"
    font-stretch="normal"
    units-per-em="1000"
    panose-1="2 0 6 3 8 0 0 2 0 4"
    ascent="800"
    descent="-200"
    x-height="547"
    cap-height="750"
    bbox="-217 -218 1350 1031"
    underline-thickness="21"
    underline-position="-113"
    unicode-range="U+0020-U+FB02"
  />
<missing-glyph horiz-adv-x="500" 
d="M0 0v700h500v-700h-500zM250 395l170 255h-340zM280 350l170 -255v510zM80 50h340l-170 255zM50 605v-510l170 255z" />
    <glyph glyph-name="fi" unicode="fi" horiz-adv-x="660" 
d="M449 0v443h-219v-443h-124v443h-85v104h85v20q0 88 50 135.5t137 47.5h78v-97h-54q-46 0 -66.5 -21t-20.5 -68v-17h343v-547h-124zM449 638v112h124v-112h-124z" />
    <glyph glyph-name="fl" unicode="fl" horiz-adv-x="660" 
d="M106 0v443h-85v104h85v20q0 88 50 135.5t137 47.5h280v-750h-124v653h-132q-46 0 -66.5 -21t-20.5 -68v-17h124v-104h-124v-443h-124z" />
    <glyph glyph-name="f_f" unicode="ff" horiz-adv-x="691" 
d="M449 0v443h-219v-443h-124v443h-85v104h85v20q0 88 50 135.5t137 47.5h78v-97h-54q-46 0 -66.5 -21t-20.5 -68v-17h219v20q0 88 50 135.5t137 47.5h78v-97h-54q-46 0 -66.5 -21t-20.5 -68v-17h138v-104h-138v-443h-124z" />
    <glyph glyph-name="f_f_i" unicode="ffi" horiz-adv-x="1003" 
d="M449 0v443h-219v-443h-124v443h-85v104h85v20q0 88 50 135.5t137 47.5h78v-97h-54q-46 0 -66.5 -21t-20.5 -68v-17h219v20q0 88 50 135.5t137 47.5h78v-97h-54q-46 0 -66.5 -21t-20.5 -68v-17h343v-547h-124v443h-219v-443h-124zM792 638v112h124v-112h-124z" />
    <glyph glyph-name="f_f_l" unicode="ffl" horiz-adv-x="1003" 
d="M449 0v443h-219v-443h-124v443h-85v104h85v20q0 88 50 135.5t137 47.5h78v-97h-54q-46 0 -66.5 -21t-20.5 -68v-17h219v20q0 88 50 135.5t137 47.5h280v-750h-124v653h-132q-46 0 -66.5 -21t-20.5 -68v-17h124v-104h-124v-443h-124z" />
    <glyph glyph-name="f_t" unicode="ft" horiz-adv-x="752" 
d="M734 0h-84q-98 0 -151.5 49t-53.5 148v246h-215v-443h-124v443h-85v104h85v20q0 88 50 135.5t137 47.5h78v-97h-54q-46 0 -66.5 -21t-20.5 -68v-17h215v132h124v-132h150v-104h-150v-221q0 -68 24.5 -93t86.5 -25h54v-104z" />
    <glyph glyph-name="f_j" unicode="fj" horiz-adv-x="669" 
d="M302 -188v104h32q64 0 89.5 31t25.5 100v396h-219v-443h-124v443h-85v104h85v20q0 88 50 135.5t137 47.5h78v-97h-54q-46 0 -66.5 -21t-20.5 -68v-17h343v-496q0 -120 -58.5 -179.5t-168.5 -59.5h-44zM449 638v112h124v-112h-124z" />
    <glyph glyph-name="f_b" unicode="fb" horiz-adv-x="988" 
d="M449 0v653h-132q-46 0 -66.5 -21t-20.5 -68v-17h124v-104h-124v-443h-124v443h-85v104h85v20q0 88 50 135.5t137 47.5h280v-294l39 34q75 65 155 65q75 0 120 -47t45 -138v-95q0 -123 -84.5 -199t-204.5 -76h-194zM604 381l-31 -27v-250h63q78 0 125 45t47 126v82
q0 91 -76 91q-49 0 -128 -67z" />
    <glyph glyph-name="f_h" unicode="fh" horiz-adv-x="1009" 
d="M449 0v653h-132q-46 0 -66.5 -21t-20.5 -68v-17h124v-104h-124v-443h-124v443h-85v104h85v20q0 88 50 135.5t137 47.5h280v-297l32 29q81 73 166 73q153 0 153 -182v-373h-123v354q0 94 -72 94q-43 0 -125 -70l-31 -26v-352h-124z" />
    <glyph glyph-name="f_k" unicode="fk" horiz-adv-x="947" 
d="M449 0v653h-132q-46 0 -66.5 -21t-20.5 -68v-17h124v-104h-124v-443h-124v443h-85v104h85v20q0 88 50 135.5t137 47.5h280v-405h48l170 202h137v-8l-205 -238l210 -293v-8h-141l-171 242h-48v-242h-124z" />
    <glyph glyph-name=".notdef" horiz-adv-x="500" 
d="M0 0v700h500v-700h-500zM250 395l170 255h-340zM280 350l170 -255v510zM80 50h340l-170 255zM50 605v-510l170 255z" />
    <glyph glyph-name=".null" horiz-adv-x="0" 
 />
    <glyph glyph-name="nonmarkingreturn" horiz-adv-x="333" 
 />
    <glyph glyph-name="space" unicode=" " horiz-adv-x="266" 
 />
    <glyph glyph-name="exclam" unicode="!" horiz-adv-x="298" 
d="M99 231l-12 519h124l-12 -519h-100zM87 0v125h124v-125h-124z" />
    <glyph glyph-name="quotedbl" unicode="&#x22;" horiz-adv-x="479" 
d="M287 547l-11 203h123l-10 -203h-102zM91 547l-11 203h124l-12 -203h-101z" />
    <glyph glyph-name="numbersign" unicode="#" horiz-adv-x="666" 
d="M156 0v159h-125v104h125v224h-125v104h125v159h106v-159h142v159h107v-159h125v-104h-125v-224h125v-104h-125v-159h-107v159h-142v-159h-106zM262 263h142v224h-142v-224z" />
    <glyph glyph-name="dollar" unicode="$" 
d="M283 755v112h99v-110q95 -5 153 -28v-106h-8q-29 9 -82 17.5t-87 8.5h-29q-128 0 -128 -99q0 -44 23.5 -64.5t69.5 -33.5l106 -29q79 -22 124 -70t45 -142q0 -96 -59 -151.5t-163 -65.5v-119h-99v117q-110 7 -183 33v107h9q103 -31 194 -31h35q135 0 135 110q0 47 -25 70
t-74 36l-109 29q-160 42 -160 204q0 88 58 141.5t155 63.5z" />
    <glyph glyph-name="percent" unicode="%" horiz-adv-x="979" 
d="M272 0v14l368 736h66v-14l-366 -736h-68zM246 320q-91 0 -135 52.5t-44 164.5q0 114 43.5 166t135.5 52q91 0 134.5 -52t43.5 -166q0 -112 -44 -164.5t-134 -52.5zM246 395q45 0 62 31t17 111q0 82 -16.5 112.5t-62.5 30.5t-63.5 -30.5t-17.5 -112.5q0 -78 17.5 -110
t63.5 -32zM737 -4q-91 0 -134.5 52t-43.5 165q0 114 43 166t135 52q91 0 134.5 -52t43.5 -166q0 -112 -44 -164.5t-134 -52.5zM737 70q45 0 62 31t17 112t-16.5 111.5t-62.5 30.5t-63.5 -30.5t-17.5 -111.5q0 -79 17.5 -111t63.5 -32z" />
    <glyph glyph-name="ampersand" unicode="&#x26;" horiz-adv-x="677" 
d="M327 -8q-260 0 -260 222q0 60 31.5 110t87.5 71q-43 21 -68.5 63t-25.5 97q0 95 66 149t177 54h26q40 0 91.5 -8.5t79.5 -20.5v-106h-8q-84 26 -163 26h-26q-114 0 -114 -104q0 -45 26.5 -73t69.5 -28h313v-105h-67v-309q-37 -15 -106.5 -26.5t-129.5 -11.5zM327 101
q68 0 108 12v226h-118q-57 0 -89.5 -33t-32.5 -90q0 -115 132 -115z" />
    <glyph glyph-name="quotesingle" unicode="'" horiz-adv-x="284" 
d="M91 547l-11 203h124l-12 -203h-101z" />
    <glyph glyph-name="parenleft" unicode="(" horiz-adv-x="390" 
d="M227 -125q-85 61 -132.5 172t-47.5 250v31q0 139 47.5 250t132.5 172h100v-16q-156 -136 -156 -406v-31q0 -270 156 -406v-16h-100z" />
    <glyph glyph-name="parenright" unicode=")" horiz-adv-x="390" 
d="M63 -125v16q156 136 156 406v31q0 270 -156 406v16h100q85 -62 132.5 -173t47.5 -249v-31q0 -138 -47.5 -249t-132.5 -173h-100z" />
    <glyph glyph-name="asterisk" unicode="*" horiz-adv-x="500" 
d="M208 473l-117 -69l-42 71l117 68l-117 68l42 71l117 -70v138h83v-138l117 70l42 -71l-118 -68l118 -68l-42 -71l-117 69v-137h-83v137z" />
    <glyph glyph-name="plus" unicode="+" 
d="M260 148v167h-166v104h166v167h105v-167h166v-104h-166v-167h-105z" />
    <glyph glyph-name="comma" unicode="," horiz-adv-x="298" 
d="M29 -125l68 250h128v-53l-110 -197h-86z" />
    <glyph glyph-name="hyphen" unicode="-" horiz-adv-x="406" 
d="M49 315v104h308v-104h-308z" />
    <glyph glyph-name="hyphen" unicode="&#xad;" horiz-adv-x="406" 
d="M49 315v104h308v-104h-308z" />
    <glyph glyph-name="period" unicode="." horiz-adv-x="298" 
d="M85 0v125h128v-125h-128z" />
    <glyph glyph-name="slash" unicode="/" horiz-adv-x="536" 
d="M31 -125v16l364 859h110v-16l-363 -859h-111z" />
    <glyph glyph-name="zero" unicode="0" 
d="M313 -8q-135 0 -199.5 92t-64.5 291q0 201 64 292t200 91q135 0 199.5 -91t64.5 -292q0 -199 -64.5 -291t-199.5 -92zM313 101q77 0 106 59.5t29 214.5q0 156 -29 215t-106 59q-78 0 -107 -59t-29 -215q0 -152 29.5 -213t106.5 -61z" />
    <glyph glyph-name="one" unicode="1" 
d="M292 0v614l-197 -79h-8v113l250 102h84v-750h-129z" />
    <glyph glyph-name="two" unicode="2" 
d="M72 0v105q0 153 145 240l93 55q49 30 74.5 60t25.5 78q0 59 -30.5 81.5t-96.5 22.5h-192v108h213q115 0 174.5 -53t59.5 -156q0 -78 -39 -126.5t-125 -99.5l-86 -51q-84 -51 -84 -145v-11h346v-108h-478z" />
    <glyph glyph-name="three" unicode="3" 
d="M87 0v108h206q64 0 102 30.5t38 90.5t-35 85t-101 25h-132v99h168q84 48 84 114q0 50 -30.5 68.5t-93.5 18.5h-203v111h214q242 0 242 -173q0 -98 -98 -164q57 -24 85 -67t28 -117q0 -108 -72.5 -168.5t-188.5 -60.5h-213z" />
    <glyph glyph-name="four" unicode="4" 
d="M375 0v151h-328v83q124 224 167 516h135q-40 -256 -172 -492h198v185h128v-185h82v-107h-82v-151h-128z" />
    <glyph glyph-name="five" unicode="5" 
d="M80 0v108h210q138 0 138 136q0 68 -36 93.5t-109 25.5h-187v387h429v-108h-309v-170h86q126 0 190.5 -58t64.5 -170q0 -113 -70 -178.5t-197 -65.5h-210z" />
    <glyph glyph-name="six" unicode="6" 
d="M310 -8q-118 0 -182 64t-64 181v226q0 131 83.5 209t231.5 78h123v-108h-134q-81 0 -128.5 -43t-47.5 -127v-30q76 37 143 37q226 0 226 -242q0 -112 -65 -178.5t-186 -66.5zM313 101q120 0 120 136q0 71 -26.5 103.5t-85.5 32.5q-64 0 -129 -29v-107q0 -136 121 -136z
" />
    <glyph glyph-name="seven" unicode="7" 
d="M198 0v94q0 165 65.5 306.5t163.5 243.5h-364v106h500v-81q-113 -131 -174.5 -262t-61.5 -303v-104h-129z" />
    <glyph glyph-name="eight" unicode="8" 
d="M299 -8q-242 0 -242 214q0 54 22.5 90.5t66.5 70.5l33 25q-107 56 -107 171q0 100 65 147.5t162 47.5h27q109 0 168 -45.5t59 -149.5q0 -79 -79 -151l-24 -21q59 -29 88.5 -72t29.5 -113q0 -101 -69.5 -157.5t-172.5 -56.5h-27zM354 430l21 20q27 27 40 51t13 58
q0 92 -102 92h-27q-102 0 -102 -92q0 -38 19 -59.5t59 -37.5zM303 104h19q118 0 118 105q0 44 -22 69.5t-65 42.5l-80 33l-31 -28q-18 -16 -28.5 -28.5t-19.5 -36t-9 -52.5q0 -59 30.5 -82t87.5 -23z" />
    <glyph glyph-name="nine" unicode="9" 
d="M123 0v108h134q80 0 127.5 43t47.5 126v28q-72 -36 -143 -36q-226 0 -226 240q0 112 66.5 178.5t186.5 66.5q117 0 181 -64t64 -181v-222q0 -131 -83.5 -209t-231.5 -78h-123zM304 374q65 0 128 28v107q0 137 -119 137q-60 0 -90.5 -32.5t-30.5 -104.5q0 -71 26.5 -103
t85.5 -32z" />
    <glyph glyph-name="colon" unicode=":" horiz-adv-x="298" 
d="M85 422v125h128v-125h-128zM85 0v125h128v-125h-128z" />
    <glyph glyph-name="semicolon" unicode=";" horiz-adv-x="298" 
d="M85 422v125h128v-125h-128zM18 -125l67 250h128v-53l-109 -197h-86z" />
    <glyph glyph-name="less" unicode="&#x3c;" 
d="M523 96l-429 222v98l429 223h8v-114l-316 -158l316 -157v-114h-8z" />
    <glyph glyph-name="equal" unicode="=" 
d="M94 426v102h437v-102h-437zM94 197v103h437v-103h-437z" />
    <glyph glyph-name="greater" unicode="&#x3e;" 
d="M94 96v114l316 157l-316 158v114h8l429 -223v-98l-429 -222h-8z" />
    <glyph glyph-name="question" unicode="?" horiz-adv-x="472" 
d="M129 213v68l117 138q70 83 70 146q0 79 -117 79h-136v106h172q205 0 205 -172q0 -79 -89 -185l-98 -116v-64h-124zM129 0v125h124v-125h-124z" />
    <glyph glyph-name="at" unicode="@" horiz-adv-x="926" 
d="M475 -102q-88 0 -163 27t-132.5 79t-90 135.5t-32.5 188.5q0 200 121 315t304 115q177 0 283 -94t106 -263q0 -108 -69.5 -176.5t-180.5 -68.5h-158q-80 0 -126.5 44.5t-46.5 127.5q0 85 51.5 136.5t130.5 51.5h137v-287h19q59 0 97.5 46t38.5 126q0 130 -72.5 198
t-209.5 68q-148 0 -234 -88t-86 -251q0 -160 85 -249.5t228 -89.5q107 0 179 20h8v-87q-70 -24 -187 -24zM463 229h50v214h-41q-38 0 -61.5 -32t-23.5 -83q0 -47 20 -73t56 -26z" />
    <glyph glyph-name="A" unicode="A" horiz-adv-x="706" 
d="M26 0v8q27 112 86 312q33 112 84 246.5t77 183.5h163q26 -49 77 -183.5t84 -246.5q59 -200 86 -312v-8h-136q-29 123 -43 176h-306l-44 -176h-128zM235 308q-5 -14 -6 -24h247q-1 4 -3.5 12t-3.5 12q-64 233 -116 340q-53 -109 -118 -340z" />
    <glyph glyph-name="B" unicode="B" horiz-adv-x="662" 
d="M87 0v750h278q222 0 222 -193q0 -58 -26.5 -102t-72.5 -67q115 -41 115 -169q0 -219 -233 -219h-283zM216 429h139q47 0 73.5 33t26.5 82q0 98 -100 98h-139v-213zM216 108h143q58 0 85 27t27 86q0 56 -28.5 81t-87.5 25h-139v-219z" />
    <glyph glyph-name="C" unicode="C" horiz-adv-x="654" 
d="M390 -8q-166 0 -254 90.5t-88 248.5v88q0 161 99.5 250t266.5 89q105 0 190 -33v-189h-118v103q-31 10 -88 10q-101 0 -159.5 -56.5t-58.5 -170.5v-91q0 -108 55.5 -169t154.5 -61h47q76 0 159 31h8v-105q-23 -11 -74 -23t-93 -12h-47z" />
    <glyph glyph-name="D" unicode="D" horiz-adv-x="731" 
d="M87 0v750h248q172 0 258.5 -81.5t86.5 -233.5v-104q0 -154 -82.5 -242.5t-253.5 -88.5h-257zM216 108h128q204 0 204 230v91q0 213 -213 213h-119v-534z" />
    <glyph glyph-name="E" unicode="E" horiz-adv-x="605" 
d="M283 0q-196 0 -196 203v547h450v-108h-321v-198h289v-109h-289v-124q0 -54 22 -78.5t69 -24.5h236v-108h-260z" />
    <glyph glyph-name="F" unicode="F" horiz-adv-x="554" 
d="M87 0v528q0 222 230 222h197v-108h-197q-53 0 -77 -28t-24 -86v-96h282v-110h-282v-322h-129z" />
    <glyph glyph-name="G" unicode="G" horiz-adv-x="716" 
d="M406 -8q-166 0 -259.5 91.5t-93.5 247.5v93q0 163 105 248.5t271 85.5q119 0 213 -37v-106h-8q-102 34 -208 34q-111 0 -176.5 -55t-65.5 -170v-93q0 -108 59.5 -169t162.5 -61h35q48 0 83 10v166h-135v109h253v-353q-32 -14 -90.5 -27.5t-110.5 -13.5h-35z" />
    <glyph glyph-name="H" unicode="H" horiz-adv-x="754" 
d="M86 0v750h129v-303h324v303h129v-750h-129v339h-324v-339h-129z" />
    <glyph glyph-name="I" unicode="I" horiz-adv-x="302" 
d="M87 0v750h129v-750h-129z" />
    <glyph glyph-name="J" unicode="J" horiz-adv-x="467" 
d="M40 0v108h101q111 0 111 123v411h-181v108h309v-519q0 -109 -61.5 -170t-171.5 -61h-107z" />
    <glyph glyph-name="K" unicode="K" horiz-adv-x="688" 
d="M87 0v750h129v-307h44l259 307h141v-8l-298 -346l311 -388v-8h-149l-269 338h-39v-338h-129z" />
    <glyph glyph-name="L" unicode="L" horiz-adv-x="537" 
d="M283 0q-97 0 -146.5 52.5t-49.5 150.5v547h129v-539q0 -54 22 -78.5t69 -24.5h207v-108h-231z" />
    <glyph glyph-name="M" unicode="M" horiz-adv-x="871" 
d="M87 0v750h119l228 -327l231 327h119v-750h-128v541l-204 -278h-46l-190 274v-537h-129z" />
    <glyph glyph-name="N" unicode="N" horiz-adv-x="758" 
d="M86 0v750h103l354 -511v511h129v-750h-105l-352 511v-511h-129z" />
    <glyph glyph-name="O" unicode="O" horiz-adv-x="748" 
d="M374 -8q-160 0 -243 93.5t-83 266.5v49q0 170 83.5 263.5t242.5 93.5q160 0 243 -92t83 -265v-49q0 -171 -83.5 -265.5t-242.5 -94.5zM374 101q102 0 148 62.5t46 188.5v49q0 125 -46 186.5t-148 61.5t-148 -61.5t-46 -186.5v-49q0 -126 46 -188.5t148 -62.5z" />
    <glyph glyph-name="P" unicode="P" horiz-adv-x="637" 
d="M87 0v750h256q251 0 251 -255q0 -131 -71 -200t-196 -69h-111v-226h-129zM216 334h104q80 0 111 39t31 122q0 81 -30.5 114t-107.5 33h-108v-308z" />
    <glyph glyph-name="Q" unicode="Q" horiz-adv-x="748" 
d="M482 -188q-72 0 -113 38t-41 107v37q-137 13 -208.5 105.5t-71.5 252.5v49q0 170 83.5 263.5t242.5 93.5q160 0 243 -92t83 -265v-49q0 -157 -71.5 -250.5t-207.5 -106.5v-28q0 -33 14.5 -46.5t53.5 -13.5q62 0 111 17h7v-90q-63 -22 -125 -22zM374 101q102 0 148 62.5
t46 188.5v49q0 125 -46 186.5t-148 61.5t-148 -61.5t-46 -186.5v-49q0 -126 46 -188.5t148 -62.5z" />
    <glyph glyph-name="R" unicode="R" horiz-adv-x="671" 
d="M87 0v750h256q126 0 188.5 -55t62.5 -181q0 -152 -130 -216q57 -50 110.5 -144.5t66.5 -145.5v-8h-138q-12 49 -62.5 136t-95.5 122h-129v-258h-129zM216 365h100q78 0 112 36.5t34 109.5q0 75 -31 103t-107 28h-108v-277z" />
    <glyph glyph-name="S" unicode="S" horiz-adv-x="610" 
d="M257 -8q-44 0 -106.5 10.5t-95.5 22.5v107h8q106 -31 194 -31h35q136 0 136 110q0 47 -25.5 70.5t-74.5 35.5l-108 29q-160 41 -160 204q0 98 70.5 153t185.5 55h31q39 0 94.5 -9t82.5 -20v-106h-7q-30 9 -82.5 17.5t-87.5 8.5h-29q-128 0 -128 -99q0 -44 23.5 -64.5
t69.5 -33.5l106 -29q80 -23 125 -71t45 -141q0 -106 -71.5 -162.5t-195.5 -56.5h-35z" />
    <glyph glyph-name="T" unicode="T" horiz-adv-x="601" 
d="M236 0v642h-220v108h569v-108h-221v-642h-128z" />
    <glyph glyph-name="U" unicode="U" horiz-adv-x="739" 
d="M370 -8q-136 0 -212 70t-76 202v486h129v-487q0 -162 159 -162q158 0 158 162v487h129v-486q0 -131 -78.5 -201.5t-208.5 -70.5z" />
    <glyph glyph-name="V" unicode="V" horiz-adv-x="692" 
d="M264 0q-54 101 -125 312.5t-112 429.5v8h135q33 -177 85 -355t103 -288q52 112 106 291t86 352h123v-8q-42 -218 -112.5 -429.5t-123.5 -312.5h-165z" />
    <glyph glyph-name="W" unicode="W" horiz-adv-x="1054" 
d="M225 0q-54 112 -111.5 321t-86.5 421v8h135q55 -402 154 -643q48 108 90.5 284t68.5 359h112q53 -386 158 -643q45 107 87.5 285.5t67.5 357.5h130v-8q-32 -218 -88.5 -424t-108.5 -318h-166q-78 168 -136 444q-28 -132 -66 -254.5t-69 -189.5h-171z" />
    <glyph glyph-name="X" unicode="X" horiz-adv-x="656" 
d="M18 0v8l235 371l-231 363v8h144l161 -254l161 254h130v-8l-223 -352l243 -382v-8h-144l-174 272l-173 -272h-129z" />
    <glyph glyph-name="Y" unicode="Y" horiz-adv-x="645" 
d="M258 0v295l-240 447v8h133l176 -344l180 344h124v-8l-245 -443v-299h-128z" />
    <glyph glyph-name="Z" unicode="Z" horiz-adv-x="620" 
d="M43 0v66q91 117 207 295t159 281h-349v108h515v-60q-43 -103 -156.5 -287t-197.5 -295h359v-108h-537z" />
    <glyph glyph-name="bracketleft" unicode="[" horiz-adv-x="413" 
d="M94 -125v875h257v-87h-133v-701h133v-87h-257z" />
    <glyph glyph-name="backslash" unicode="\" horiz-adv-x="536" 
d="M395 -125l-364 859v16h111l363 -859v-16h-110z" />
    <glyph glyph-name="bracketright" unicode="]" horiz-adv-x="413" 
d="M63 -125v87h132v701h-132v87h256v-875h-256z" />
    <glyph glyph-name="asciicircum" unicode="^" 
d="M42 109v8l223 430h95l223 -430v-8h-114l-156 321l-156 -321h-115z" />
    <glyph glyph-name="underscore" unicode="_" 
d="M31 -104v104h563v-104h-563z" />
    <glyph glyph-name="grave" unicode="`" horiz-adv-x="233" 
d="M154 625l-154 141v15h136l97 -140v-16h-79z" />
    <glyph glyph-name="a" unicode="a" horiz-adv-x="626" 
d="M222 -8q-76 0 -120.5 47t-44.5 138v94q0 124 84 200t205 76h193v-547h-124v91l-39 -34q-74 -65 -154 -65zM384 166l31 26v251h-62q-79 0 -125.5 -45.5t-46.5 -126.5v-82q0 -90 75 -90q51 0 128 67z" />
    <glyph glyph-name="b" unicode="b" horiz-adv-x="626" 
d="M87 0v750h124v-294l39 34q75 65 154 65q76 0 120.5 -47t44.5 -138v-95q0 -123 -84 -199t-205 -76h-193zM242 381l-31 -27v-250h62q79 0 125.5 45t46.5 126v82q0 91 -75 91q-51 0 -128 -67z" />
    <glyph glyph-name="c" unicode="c" horiz-adv-x="524" 
d="M304 -8q-116 0 -185 56t-69 169v103q0 108 73 171.5t175 63.5q97 0 170 -39v-160h-106v80q-22 12 -64 12q-55 0 -89.5 -33t-34.5 -98v-85q0 -65 34 -99t97 -34q81 0 151 32h8v-104q-72 -35 -160 -35z" />
    <glyph glyph-name="d" unicode="d" horiz-adv-x="626" 
d="M222 -8q-76 0 -120.5 47t-44.5 138v94q0 124 84 200t205 76h69v203h124v-750h-124v91l-39 -34q-74 -65 -154 -65zM384 166l31 26v251h-62q-79 0 -125.5 -45.5t-46.5 -126.5v-82q0 -90 75 -90q51 0 128 67z" />
    <glyph glyph-name="e" unicode="e" horiz-adv-x="569" 
d="M302 -8q-116 0 -184 54t-68 167v107q0 111 71 173t183 62q97 0 155 -40t58 -126q0 -78 -50 -118t-136 -40h-157v-20q0 -112 135 -112q78 0 162 30h8v-104q-92 -33 -177 -33zM174 322v-8h138q47 0 67 17.5t20 53.5q0 37 -24.5 51.5t-70.5 14.5q-130 0 -130 -129z" />
    <glyph glyph-name="f" unicode="f" horiz-adv-x="354" 
d="M106 0v443h-85v104h85v20q0 88 50 135.5t137 47.5h84v-97h-60q-46 0 -66.5 -21t-20.5 -68v-17h131v-104h-131v-443h-124z" />
    <glyph glyph-name="g" unicode="g" horiz-adv-x="626" 
d="M114 -188v104h108q102 0 147.5 34.5t45.5 123.5v15l-21 -10q-7 -3 -25.5 -12t-30 -13.5t-29.5 -10.5t-36.5 -9t-38.5 -3q-81 0 -129 49t-48 143v48q0 127 80 201.5t200 74.5h202v-474q0 -131 -76 -196t-214 -65h-135zM395 172l20 10v261h-71q-78 0 -120.5 -45t-42.5 -127
v-36q0 -97 84 -97q58 0 130 34z" />
    <glyph glyph-name="h" unicode="h" horiz-adv-x="646" 
d="M438 0v354q0 51 -18 72.5t-53 21.5q-45 0 -125 -70l-31 -26v-352h-124v750h124v-297l32 29q81 73 166 73q153 0 153 -182v-373h-124z" />
    <glyph glyph-name="i" unicode="i" horiz-adv-x="313" 
d="M103 638v112h124v-112h-124zM103 0v443h-87v104h211v-547h-124z" />
    <glyph glyph-name="j" unicode="j" horiz-adv-x="317" 
d="M110 638v112h124v-112h-124zM-37 -188v104h32q64 0 89.5 31t25.5 100v396h-87v104h211v-496q0 -120 -58.5 -179.5t-168.5 -59.5h-44z" />
    <glyph glyph-name="k" unicode="k" horiz-adv-x="584" 
d="M86 0v750h124v-405h48l170 202h136v-8l-205 -238l210 -293v-8h-140l-171 242h-48v-242h-124z" />
    <glyph glyph-name="l" unicode="l" horiz-adv-x="305" 
d="M94 0v646h-87v104h211v-750h-124z" />
    <glyph glyph-name="m" unicode="m" horiz-adv-x="989" 
d="M87 0v547h124v-94l30 29q75 73 165 73q114 0 143 -106h5l35 33q78 73 164 73q152 0 152 -182v-373h-124v354q0 51 -17.5 72.5t-52.5 21.5q-47 0 -124 -70l-29 -26v-352h-123v354q0 51 -18 72.5t-54 21.5q-46 0 -123 -70l-29 -26v-352h-124z" />
    <glyph glyph-name="n" unicode="n" horiz-adv-x="646" 
d="M87 0v547h124v-94l32 29q81 73 166 73q153 0 153 -182v-373h-124v354q0 51 -18 72.5t-53 21.5q-45 0 -125 -70l-31 -26v-352h-124z" />
    <glyph glyph-name="o" unicode="o" horiz-adv-x="610" 
d="M305 -8q-257 0 -257 286q0 134 66 205.5t191 71.5q257 0 257 -277q0 -286 -257 -286zM305 99q72 0 102.5 45t30.5 134q0 87 -30 128.5t-103 41.5t-103 -41.5t-30 -128.5q0 -89 30.5 -134t102.5 -45z" />
    <glyph glyph-name="p" unicode="p" horiz-adv-x="626" 
d="M87 -188v735h124v-91l39 34q75 65 154 65q76 0 120.5 -47t44.5 -138v-95q0 -123 -84 -199t-205 -76h-69v-188h-124zM242 381l-31 -27v-250h62q79 0 125.5 45t46.5 126v82q0 91 -75 91q-51 0 -128 -67z" />
    <glyph glyph-name="q" unicode="q" horiz-adv-x="626" 
d="M415 -188v279l-39 -34q-74 -65 -154 -65q-76 0 -120.5 47t-44.5 138v94q0 124 84 200t205 76h193v-735h-124zM384 166l31 26v251h-62q-79 0 -125.5 -45.5t-46.5 -126.5v-82q0 -90 75 -90q51 0 128 67z" />
    <glyph glyph-name="r" unicode="r" horiz-adv-x="416" 
d="M86 0v547h124v-100q66 103 158 103h39v-116h-49q-33 0 -62.5 -14t-41.5 -25t-44 -43v-352h-124z" />
    <glyph glyph-name="s" unicode="s" horiz-adv-x="526" 
d="M229 -8q-97 0 -170 20v104h7q86 -19 163 -19q118 0 118 64q0 44 -68 61l-84 19q-138 33 -138 150q0 79 65.5 121.5t173.5 42.5q70 0 148 -16v-104h-7q-92 15 -144 15q-109 0 -109 -57q0 -14 4.5 -23.5t15 -15.5t18.5 -8.5t25 -6.5l74 -17q71 -16 112 -51.5t41 -108.5
q0 -90 -69 -130t-176 -40z" />
    <glyph glyph-name="t" unicode="t" horiz-adv-x="413" 
d="M396 0h-84q-98 0 -152 49t-54 148v246h-85v104h85v132h124v-132h150v-104h-150v-221q0 -68 24.5 -93t86.5 -25h55v-104z" />
    <glyph glyph-name="u" unicode="u" horiz-adv-x="646" 
d="M236 -8q-151 0 -151 182v373h123v-355q0 -50 17.5 -71.5t53.5 -21.5q43 0 125 70l32 27v351h123v-547h-123v94l-33 -30q-80 -72 -167 -72z" />
    <glyph glyph-name="v" unicode="v" horiz-adv-x="548" 
d="M201 0q-51 44 -104 162t-53 244v141h124v-141q0 -100 31.5 -187t75.5 -134q44 46 74 132.5t30 188.5v141h124v-141q0 -126 -55.5 -243.5t-108.5 -162.5h-138z" />
    <glyph glyph-name="w" unicode="w" horiz-adv-x="810" 
d="M182 0q-49 45 -93.5 161t-44.5 245v141h124v-141q0 -102 25.5 -189t62.5 -132q37 45 62 131.5t25 189.5v141h124v-141q0 -103 25 -189.5t62 -131.5q37 45 62.5 132t25.5 189v141h123v-141q0 -127 -46.5 -243t-96.5 -163h-132q-19 20 -48.5 74t-38.5 92q-9 -38 -39.5 -91
t-51.5 -75h-130z" />
    <glyph glyph-name="x" unicode="x" horiz-adv-x="514" 
d="M13 0v8l179 266l-171 265v8h127l112 -172l116 172h121v-8l-175 -259l178 -272v-8h-128l-118 180l-121 -180h-120z" />
    <glyph glyph-name="y" unicode="y" horiz-adv-x="643" 
d="M134 -188v104h104q102 0 148 39.5t46 130.5v27h-4q-100 -50 -174 -50q-79 0 -126 47t-47 142v295h124v-283q0 -95 84 -95q69 0 143 39v339h124v-464q0 -133 -77 -202t-213 -69h-132z" />
    <glyph glyph-name="z" unicode="z" horiz-adv-x="523" 
d="M44 0v83q74 74 155.5 175.5t129.5 184.5h-272v104h418v-83q-30 -71 -117 -186.5t-149 -173.5h273v-104h-438z" />
    <glyph glyph-name="braceleft" unicode="{" horiz-adv-x="493" 
d="M391 -125q-99 0 -142.5 41.5t-43.5 130.5v112q0 54 -31.5 81t-110.5 32v80q79 5 110.5 32t31.5 81v113q0 93 48 132.5t159 39.5h50v-87h-48q-52 0 -69 -21t-17 -81v-100q0 -68 -34.5 -101.5t-94.5 -46.5q61 -14 95 -47.5t34 -101.5v-101q0 -59 17 -80t69 -21h48v-87h-71z
" />
    <glyph glyph-name="bar" unicode="|" horiz-adv-x="312" 
d="M103 -188v1001h105v-1001h-105z" />
    <glyph glyph-name="braceright" unicode="}" horiz-adv-x="493" 
d="M31 -125v87h47q52 0 69 21t17 80v101q0 68 34.5 101.5t94.5 47.5q-60 13 -94.5 46.5t-34.5 101.5v100q0 60 -17 81t-69 21h-47v87h56q111 0 155.5 -46t44.5 -151v-88q0 -55 31.5 -81.5t111.5 -31.5v-80q-80 -5 -111.5 -31.5t-31.5 -81.5v-88q0 -104 -44.5 -150
t-155.5 -46h-56z" />
    <glyph glyph-name="asciitilde" unicode="~" 
d="M94 249v100q16 29 47 49.5t70 20.5q37 0 109 -33t98 -33q39 0 63 16t42 50h8v-100q-16 -29 -47 -49.5t-70 -20.5q-37 0 -109 33t-98 33q-64 0 -105 -66h-8z" />
    <glyph glyph-name="exclamdown" unicode="&#xa1;" horiz-adv-x="298" 
d="M87 625v125h124v-125h-124zM87 0l12 519h100l12 -519h-124z" />
    <glyph glyph-name="cent" unicode="&#xa2;" 
d="M335 753v114h99v-109q84 -4 152 -29v-106h-8q-83 26 -186 26q-101 0 -158.5 -56.5t-57.5 -170.5v-91q0 -109 52 -169.5t151 -60.5h47q74 0 152 31h8v-105q-72 -31 -148 -35v-117h-99v119q-145 10 -220 99.5t-75 237.5v88q0 142 77.5 229t213.5 105z" />
    <glyph glyph-name="sterling" unicode="&#xa3;" 
d="M109 108q62 48 62 155v72h-88v109h88v53q0 120 71 186.5t195 66.5h121v-108h-121q-138 0 -138 -145v-53h205v-109h-205v-72q0 -109 -62 -155h321v-108h-498v108h49z" />
    <glyph glyph-name="currency" unicode="&#xa4;" horiz-adv-x="500" 
d="M256 534h1q70 0 115 -40l71 75l45 -46l-79 -71q35 -47 35 -118q0 -76 -35 -122l75 -74l-44 -44l-69 76q-45 -42 -117 -42q-71 0 -114 40l-67 -74l-43 44l72 70q-37 50 -37 121q0 73 39 123l-76 71l45 46l68 -76q48 41 115 41zM255 471h-1q-53 0 -85.5 -40.5t-32.5 -100.5
q0 -67 36.5 -103t81.5 -36q48 0 83.5 35.5t35.5 106.5q0 56 -31.5 97t-86.5 41z" />
    <glyph glyph-name="yen" unicode="&#xa5;" 
d="M375 163v-163h-128v163h-185v108h185v62l-231 409v8h133l169 -313l167 313h124v-8l-234 -409v-62h187v-108h-187z" />
    <glyph glyph-name="brokenbar" unicode="&#xa6;" horiz-adv-x="312" 
d="M103 406v407h105v-407h-105zM103 -188v407h105v-407h-105z" />
    <glyph glyph-name="section" unicode="&#xa7;" horiz-adv-x="554" 
d="M489 244h-11l-216 116q-39 21 -63.5 38t-50.5 42t-38.5 57.5t-12.5 73.5q0 85 63 132t157 47h191v-110h-192q-90 0 -90 -68q0 -30 14.5 -51t48.5 -40l200 -112v-125zM62 317h11l217 -116q39 -21 63 -37t50 -41t38.5 -58t12.5 -74q0 -94 -72 -136.5t-184 -42.5h-155v111
h191q91 0 91 67q0 30 -15 50.5t-48 39.5l-200 113v124z" />
    <glyph glyph-name="dieresis" unicode="&#xa8;" horiz-adv-x="383" 
d="M0 606v113h124v-113h-124zM259 606v113h124v-113h-124z" />
    <glyph glyph-name="copyright" unicode="&#xa9;" horiz-adv-x="868" 
d="M435 16q-166 0 -277 102.5t-111 264.5t111 264.5t277 102.5t276 -102.5t110 -264.5t-110 -264.5t-276 -102.5zM435 76q142 0 226.5 85.5t84.5 221.5q0 135 -84.5 220.5t-226.5 85.5q-143 0 -228.5 -85.5t-85.5 -220.5t85.5 -221t228.5 -86zM474 180q-101 0 -168.5 49.5
t-67.5 153.5q0 71 34.5 118t85.5 66t115 19q39 0 95 -16v-49q-60 15 -95 15q-66 0 -107 -38.5t-41 -114.5t41.5 -115t107.5 -39q46 0 94 16v-50q-51 -15 -94 -15z" />
    <glyph glyph-name="ordfeminine" unicode="&#xaa;" horiz-adv-x="538" 
d="M190 323q-65 0 -103 36t-38 106v73q0 95 72.5 153.5t175.5 58.5h167v-421h-108v70l-33 -26q-63 -50 -133 -50zM330 457l26 21v193h-53q-68 0 -108 -35.5t-40 -97.5v-63q0 -70 65 -70q43 0 110 52z" />
    <glyph glyph-name="guillemotleft" unicode="&#xab;" horiz-adv-x="586" 
d="M521 125l-208 171v81l208 170h10v-107l-130 -104l130 -105v-106h-10zM271 125l-208 171v81l208 170h10v-107l-130 -104l130 -105v-106h-10z" />
    <glyph glyph-name="logicalnot" unicode="&#xac;" 
d="M426 148v167h-332v104h437v-271h-105z" />
    <glyph glyph-name="registered" unicode="&#xae;" horiz-adv-x="868" 
d="M435 16q-166 0 -277 102.5t-111 264.5t111 264.5t277 102.5t276 -102.5t110 -264.5t-110 -264.5t-276 -102.5zM435 76q142 0 226.5 85.5t84.5 221.5q0 135 -84.5 220.5t-226.5 85.5q-143 0 -228.5 -85.5t-85.5 -220.5t85.5 -221t228.5 -86zM281 180v406h140
q166 0 166 -125q0 -41 -22 -71.5t-60 -41.5l93 -160v-8h-90l-77 138h-63v-138h-87zM368 370h48q36 0 60 23t24 68q0 38 -23.5 56.5t-60.5 18.5h-48v-166z" />
    <glyph glyph-name="macron" unicode="&#xaf;" horiz-adv-x="303" 
d="M0 625v84h303v-84h-303z" />
    <glyph glyph-name="macron" unicode="&#x2c9;" horiz-adv-x="303" 
d="M0 625v84h303v-84h-303z" />
    <glyph glyph-name="degree" unicode="&#xb0;" horiz-adv-x="412" 
d="M207 320q-91 0 -135 52.5t-44 164.5q0 114 43.5 166t135.5 52q91 0 134.5 -52t43.5 -166q0 -112 -44 -164.5t-134 -52.5zM207 395q45 0 62 31t17 111q0 82 -16.5 112.5t-62.5 30.5t-63.5 -30.5t-17.5 -112.5q0 -78 17.5 -110t63.5 -32z" />
    <glyph glyph-name="plusminus" unicode="&#xb1;" 
d="M260 148v167h-166v104h166v167h105v-167h166v-104h-166v-167h-105zM94 -104v104h437v-104h-437z" />
    <glyph glyph-name="twosuperior" unicode="&#xb2;" horiz-adv-x="412" 
d="M44 324v66q0 87 97 137l59 32q20 10 31.5 17.5t21 21t9.5 29.5q0 28 -18.5 38.5t-56.5 10.5h-132v74h145q159 0 159 -122q0 -44 -27 -73t-82 -57l-56 -28q-50 -26 -50 -72h223v-74h-323z" />
    <glyph glyph-name="threesuperior" unicode="&#xb3;" horiz-adv-x="412" 
d="M54 324v74h139q38 0 60.5 15t22.5 45q0 52 -80 52h-92v69h116q47 25 47 55q0 23 -18.5 31.5t-55.5 8.5h-137v76h144q165 0 165 -102q0 -53 -53 -87q62 -32 62 -103q0 -64 -48.5 -99t-127.5 -35h-144z" />
    <glyph glyph-name="acute" unicode="&#xb4;" horiz-adv-x="233" 
d="M0 625v16l98 140h135v-15l-154 -141h-79z" />
    <glyph glyph-name="mu" unicode="&#xb5;" horiz-adv-x="646" 
d="M84 547h124v-356q0 -90 75 -90q67 0 153 84v362h123v-399q0 -91 27 -148h-123q-17 34 -24 84q-27 -29 -45 -44.5t-48.5 -29.5t-64.5 -14q-46 0 -73 18v-202h-124v735z" />
    <glyph glyph-name="mu" unicode="&#x3bc;" horiz-adv-x="646" 
d="M84 547h124v-356q0 -90 75 -90q67 0 153 84v362h123v-399q0 -91 27 -148h-123q-17 34 -24 84q-27 -29 -45 -44.5t-48.5 -29.5t-64.5 -14q-46 0 -73 18v-202h-124v735z" />
    <glyph glyph-name="paragraph" unicode="&#xb6;" horiz-adv-x="785" 
d="M574 -188v938h124v-938h-124zM375 -188v376h-62q-123 0 -202.5 73t-79.5 208t79.5 208t202.5 73h186v-938h-124z" />
    <glyph glyph-name="periodcentered" unicode="&#xb7;" horiz-adv-x="298" 
d="M85 298v124h128v-124h-128z" />
    <glyph glyph-name="periodcentered" unicode="&#x2219;" horiz-adv-x="298" 
d="M85 298v124h128v-124h-128z" />
    <glyph glyph-name="cedilla" unicode="&#xb8;" horiz-adv-x="226" 
d="M0 -188v61h94q54 0 54 34q0 32 -50 58v12h65q27 -12 45 -35.5t18 -46.5q0 -42 -31 -62.5t-79 -20.5h-116z" />
    <glyph glyph-name="onesuperior" unicode="&#xb9;" horiz-adv-x="412" 
d="M185 324v332l-118 -39h-14v76l166 57h63v-426h-97z" />
    <glyph glyph-name="ordmasculine" unicode="&#xba;" horiz-adv-x="524" 
d="M262 323q-221 0 -221 220q0 103 56.5 158t164.5 55q221 0 221 -213q0 -220 -221 -220zM262 405q62 0 88.5 35t26.5 103q0 67 -26 99t-89 32q-62 0 -88.5 -32t-26.5 -99q0 -68 27 -103t88 -35z" />
    <glyph glyph-name="guillemotright" unicode="&#xbb;" horiz-adv-x="586" 
d="M305 125v106l130 105l-130 104v107h9l209 -170v-81l-209 -171h-9zM55 125v106l130 105l-130 104v107h9l209 -170v-81l-209 -171h-9z" />
    <glyph glyph-name="onequarter" unicode="&#xbc;" horiz-adv-x="979" 
d="M272 0v14l368 736h66v-14l-366 -736h-68zM208 324v332l-117 -39h-15v76l166 57h64v-426h-98zM775 0v83h-211v55q80 122 110 288h102q-27 -146 -106 -270h105v102h99v-102h53v-73h-53v-83h-99z" />
    <glyph glyph-name="onehalf" unicode="&#xbd;" horiz-adv-x="979" 
d="M272 0v14l368 736h66v-14l-366 -736h-68zM208 324v332l-117 -39h-15v76l166 57h64v-426h-98zM588 0v65q0 88 97 138l59 31q21 11 32 18.5t20.5 21t9.5 29.5q0 28 -18.5 38.5t-57.5 10.5h-131v74h145q159 0 159 -122q0 -44 -27 -73t-82 -57l-56 -28q-51 -26 -51 -72h224
v-74h-323z" />
    <glyph glyph-name="threequarters" unicode="&#xbe;" horiz-adv-x="979" 
d="M272 0v14l368 736h66v-14l-366 -736h-68zM775 0v83h-211v55q80 122 110 288h102q-27 -146 -106 -270h105v102h99v-102h53v-73h-53v-83h-99zM54 324v74h139q38 0 60.5 15t22.5 45q0 52 -80 52h-92v69h116q47 25 47 55q0 23 -18.5 31.5t-55.5 8.5h-137v76h144
q165 0 165 -102q0 -53 -53 -87q62 -32 62 -103q0 -64 -48.5 -99t-127.5 -35h-144z" />
    <glyph glyph-name="questiondown" unicode="&#xbf;" horiz-adv-x="472" 
d="M219 625v125h124v-125h-124zM236 0q-205 0 -205 172q0 78 90 185l98 116v65h124v-69l-118 -137q-70 -81 -70 -147q0 -79 117 -79h137v-106h-173z" />
    <glyph glyph-name="Agrave" unicode="&#xc0;" horiz-adv-x="706" 
d="M26 0v8q27 112 86 312q33 112 84 246.5t77 183.5h163q26 -49 77 -183.5t84 -246.5q59 -200 86 -312v-8h-136q-29 123 -43 176h-306l-44 -176h-128zM235 308q-5 -14 -6 -24h247q-1 4 -3.5 12t-3.5 12q-64 233 -116 340q-53 -109 -118 -340zM387 828l-155 141v15h136
l98 -140v-16h-79z" />
    <glyph glyph-name="Aacute" unicode="&#xc1;" horiz-adv-x="706" 
d="M26 0v8q27 112 86 312q33 112 84 246.5t77 183.5h163q26 -49 77 -183.5t84 -246.5q59 -200 86 -312v-8h-136q-29 123 -43 176h-306l-44 -176h-128zM235 308q-5 -14 -6 -24h247q-1 4 -3.5 12t-3.5 12q-64 233 -116 340q-53 -109 -118 -340zM240 828v16l98 140h136v-15
l-155 -141h-79z" />
    <glyph glyph-name="Acircumflex" unicode="&#xc2;" horiz-adv-x="706" 
d="M26 0v8q27 112 86 312q33 112 84 246.5t77 183.5h163q26 -49 77 -183.5t84 -246.5q59 -200 86 -312v-8h-136q-29 123 -43 176h-306l-44 -176h-128zM235 308q-5 -14 -6 -24h247q-1 4 -3.5 12t-3.5 12q-64 233 -116 340q-53 -109 -118 -340zM546 828h-84l-110 106
l-109 -106h-83v16l132 149h122l132 -151v-14z" />
    <glyph glyph-name="Atilde" unicode="&#xc3;" horiz-adv-x="706" 
d="M26 0v8q27 112 86 312q33 112 84 246.5t77 183.5h163q26 -49 77 -183.5t84 -246.5q59 -200 86 -312v-8h-136q-29 123 -43 176h-306l-44 -176h-128zM235 308q-5 -14 -6 -24h247q-1 4 -3.5 12t-3.5 12q-64 233 -116 340q-53 -109 -118 -340zM181 828v77q42 70 97 70
q30 0 79.5 -36t65.5 -36q20 0 39 12.5t29 24.5t26 35h7v-74q-15 -26 -42.5 -49.5t-58.5 -23.5q-28 0 -78 36t-67 36q-7 0 -13.5 -1t-12.5 -4.5l-10.5 -6t-10.5 -8l-9.5 -8.5t-9 -11t-8 -10.5t-8.5 -11.5t-8 -11h-7z" />
    <glyph glyph-name="Adieresis" unicode="&#xc4;" horiz-adv-x="706" 
d="M26 0v8q27 112 86 312q33 112 84 246.5t77 183.5h163q26 -49 77 -183.5t84 -246.5q59 -200 86 -312v-8h-136q-29 123 -43 176h-306l-44 -176h-128zM235 308q-5 -14 -6 -24h247q-1 4 -3.5 12t-3.5 12q-64 233 -116 340q-53 -109 -118 -340zM161 810v112h124v-112h-124z
M420 810v112h124v-112h-124z" />
    <glyph glyph-name="Aring" unicode="&#xc5;" horiz-adv-x="706" 
d="M26 0v8q27 112 86 312q33 112 84 246.5t77 183.5h163q26 -49 77 -183.5t84 -246.5q59 -200 86 -312v-8h-136q-29 123 -43 176h-306l-44 -176h-128zM235 308q-5 -14 -6 -24h247q-1 4 -3.5 12t-3.5 12q-64 233 -116 340q-53 -109 -118 -340zM354 828q-59 0 -92 27t-33 75
q0 45 33.5 73t91.5 28t90.5 -27.5t32.5 -73.5t-32.5 -74t-90.5 -28zM354 867q32 0 49 18.5t17 44.5t-17 44t-49 18q-33 0 -50 -18t-17 -44t17 -44.5t50 -18.5z" />
    <glyph glyph-name="AE" unicode="&#xc6;" horiz-adv-x="935" 
d="M27 0v8q27 112 86 312q33 113 84 247.5t76 182.5h592v-108h-321v-198h290v-109h-290v-124q0 -54 22 -78.5t70 -24.5h236v-108h-260q-181 0 -195 176h-219q-29 -114 -43 -176h-128zM352 644q-53 -111 -123 -359h187v359h-64z" />
    <glyph glyph-name="Ccedilla" unicode="&#xc7;" horiz-adv-x="654" 
d="M390 -8q-166 0 -254 90.5t-88 248.5v88q0 161 99.5 250t266.5 89q105 0 190 -33v-189h-118v103q-31 10 -88 10q-101 0 -159.5 -56.5t-58.5 -170.5v-91q0 -108 55.5 -169t154.5 -61h47q76 0 159 31h8v-105q-23 -11 -74 -23t-93 -12h-47zM257 -188v61h94q54 0 54 34
q0 33 -51 58v12h66q26 -12 44 -35.5t18 -46.5q0 -42 -30.5 -62.5t-78.5 -20.5h-116z" />
    <glyph glyph-name="Egrave" unicode="&#xc8;" horiz-adv-x="605" 
d="M283 0q-196 0 -196 203v547h450v-108h-321v-198h289v-109h-289v-124q0 -54 22 -78.5t69 -24.5h236v-108h-260zM348 828l-155 141v15h136l98 -140v-16h-79z" />
    <glyph glyph-name="Eacute" unicode="&#xc9;" horiz-adv-x="605" 
d="M283 0q-196 0 -196 203v547h450v-108h-321v-198h289v-109h-289v-124q0 -54 22 -78.5t69 -24.5h236v-108h-260zM217 828v16l97 140h136v-15l-154 -141h-79z" />
    <glyph glyph-name="Ecircumflex" unicode="&#xca;" horiz-adv-x="605" 
d="M283 0q-196 0 -196 203v547h450v-108h-321v-198h289v-109h-289v-124q0 -54 22 -78.5t69 -24.5h236v-108h-260zM503 828h-84l-110 106l-109 -106h-83v16l132 149h122l132 -151v-14z" />
    <glyph glyph-name="Edieresis" unicode="&#xcb;" horiz-adv-x="605" 
d="M283 0q-196 0 -196 203v547h450v-108h-321v-198h289v-109h-289v-124q0 -54 22 -78.5t69 -24.5h236v-108h-260zM119 810v112h124v-112h-124zM378 810v112h124v-112h-124z" />
    <glyph glyph-name="Igrave" unicode="&#xcc;" horiz-adv-x="302" 
d="M87 0v750h129v-750h-129zM177 828l-155 141v15h136l98 -140v-16h-79z" />
    <glyph glyph-name="Iacute" unicode="&#xcd;" horiz-adv-x="302" 
d="M87 0v750h129v-750h-129zM46 828v16l98 140h135v-15l-154 -141h-79z" />
    <glyph glyph-name="Icircumflex" unicode="&#xce;" horiz-adv-x="302" 
d="M87 0v750h129v-750h-129zM344 828h-84l-111 106l-108 -106h-83v16l132 149h122l132 -151v-14z" />
    <glyph glyph-name="Idieresis" unicode="&#xcf;" horiz-adv-x="302" 
d="M87 0v750h129v-750h-129zM-40 810v112h124v-112h-124zM219 810v112h124v-112h-124z" />
    <glyph glyph-name="Eth" unicode="&#xd0;" horiz-adv-x="731" 
d="M87 0v340h-56v98h56v312h248q172 0 258.5 -81.5t86.5 -233.5v-104q0 -154 -82.5 -242.5t-253.5 -88.5h-257zM216 108h128q204 0 204 230v91q0 213 -213 213h-119v-204h113v-98h-113v-232z" />
    <glyph glyph-name="Ntilde" unicode="&#xd1;" horiz-adv-x="758" 
d="M86 0v750h103l354 -511v511h129v-750h-105l-352 511v-511h-129zM195 828v77q45 70 98 70q30 0 79 -36t65 -36q29 0 50 19t44 53h8v-74q-16 -27 -43.5 -50t-58.5 -23q-27 0 -77 36t-67 36q-7 0 -13.5 -1t-12.5 -4.5l-10.5 -6t-10.5 -8l-9.5 -8.5t-9 -11t-8 -10.5
t-8.5 -11.5t-8 -11h-8z" />
    <glyph glyph-name="Ograve" unicode="&#xd2;" horiz-adv-x="748" 
d="M374 -8q-160 0 -243 93.5t-83 266.5v49q0 170 83.5 263.5t242.5 93.5q160 0 243 -92t83 -265v-49q0 -171 -83.5 -265.5t-242.5 -94.5zM374 101q102 0 148 62.5t46 188.5v49q0 125 -46 186.5t-148 61.5t-148 -61.5t-46 -186.5v-49q0 -126 46 -188.5t148 -62.5zM411 828
l-154 141v15h136l97 -140v-16h-79z" />
    <glyph glyph-name="Oacute" unicode="&#xd3;" horiz-adv-x="748" 
d="M374 -8q-160 0 -243 93.5t-83 266.5v49q0 170 83.5 263.5t242.5 93.5q160 0 243 -92t83 -265v-49q0 -171 -83.5 -265.5t-242.5 -94.5zM374 101q102 0 148 62.5t46 188.5v49q0 125 -46 186.5t-148 61.5t-148 -61.5t-46 -186.5v-49q0 -126 46 -188.5t148 -62.5zM257 828v16
l97 140h136v-15l-154 -141h-79z" />
    <glyph glyph-name="Ocircumflex" unicode="&#xd4;" horiz-adv-x="748" 
d="M374 -8q-160 0 -243 93.5t-83 266.5v49q0 170 83.5 263.5t242.5 93.5q160 0 243 -92t83 -265v-49q0 -171 -83.5 -265.5t-242.5 -94.5zM374 101q102 0 148 62.5t46 188.5v49q0 125 -46 186.5t-148 61.5t-148 -61.5t-46 -186.5v-49q0 -126 46 -188.5t148 -62.5zM566 828
h-84l-110 106l-108 -106h-83v16l131 149h123l131 -151v-14z" />
    <glyph glyph-name="Otilde" unicode="&#xd5;" horiz-adv-x="748" 
d="M374 -8q-160 0 -243 93.5t-83 266.5v49q0 170 83.5 263.5t242.5 93.5q160 0 243 -92t83 -265v-49q0 -171 -83.5 -265.5t-242.5 -94.5zM374 101q102 0 148 62.5t46 188.5v49q0 125 -46 186.5t-148 61.5t-148 -61.5t-46 -186.5v-49q0 -126 46 -188.5t148 -62.5zM202 828v77
q45 70 98 70q29 0 78.5 -36t65.5 -36q29 0 50 19t44 53h8v-74q-16 -27 -43.5 -50t-58.5 -23q-27 0 -77 36t-67 36q-19 0 -38 -13t-27 -23.5t-25 -35.5h-8z" />
    <glyph glyph-name="Odieresis" unicode="&#xd6;" horiz-adv-x="748" 
d="M374 -8q-160 0 -243 93.5t-83 266.5v49q0 170 83.5 263.5t242.5 93.5q160 0 243 -92t83 -265v-49q0 -171 -83.5 -265.5t-242.5 -94.5zM374 101q102 0 148 62.5t46 188.5v49q0 125 -46 186.5t-148 61.5t-148 -61.5t-46 -186.5v-49q0 -126 46 -188.5t148 -62.5zM183 810
v112h124v-112h-124zM441 810v112h124v-112h-124z" />
    <glyph glyph-name="multiply" unicode="&#xd7;" 
d="M195 176l-75 73l117 118l-117 118l75 74l118 -119l117 119l75 -74l-117 -118l117 -118l-75 -73l-117 118z" />
    <glyph glyph-name="Oslash" unicode="&#xd8;" horiz-adv-x="748" 
d="M48 0v12l70 89q-70 89 -70 251v49q0 170 83.5 263.5t242.5 93.5q131 0 213 -65l45 57h68v-12l-70 -89q70 -88 70 -248v-49q0 -171 -83.5 -265.5t-242.5 -94.5q-131 0 -213 65l-45 -57h-68zM374 101q102 0 148 62.5t46 188.5v49q0 91 -22 143l-311 -393q47 -50 139 -50z
M180 352q0 -89 22 -145l310 392q-48 50 -138 50q-102 0 -148 -61.5t-46 -186.5v-49z" />
    <glyph glyph-name="Ugrave" unicode="&#xd9;" horiz-adv-x="739" 
d="M370 -8q-136 0 -212 70t-76 202v486h129v-487q0 -162 159 -162q158 0 158 162v487h129v-486q0 -131 -78.5 -201.5t-208.5 -70.5zM407 828l-154 141v15h136l97 -140v-16h-79z" />
    <glyph glyph-name="Uacute" unicode="&#xda;" horiz-adv-x="739" 
d="M370 -8q-136 0 -212 70t-76 202v486h129v-487q0 -162 159 -162q158 0 158 162v487h129v-486q0 -131 -78.5 -201.5t-208.5 -70.5zM253 828v16l98 140h135v-15l-154 -141h-79z" />
    <glyph glyph-name="Ucircumflex" unicode="&#xdb;" horiz-adv-x="739" 
d="M370 -8q-136 0 -212 70t-76 202v486h129v-487q0 -162 159 -162q158 0 158 162v487h129v-486q0 -131 -78.5 -201.5t-208.5 -70.5zM562 828h-83l-111 106l-108 -106h-83v16l132 149h122l131 -151v-14z" />
    <glyph glyph-name="Udieresis" unicode="&#xdc;" horiz-adv-x="739" 
d="M370 -8q-136 0 -212 70t-76 202v486h129v-487q0 -162 159 -162q158 0 158 162v487h129v-486q0 -131 -78.5 -201.5t-208.5 -70.5zM178 810v112h124v-112h-124zM437 810v112h124v-112h-124z" />
    <glyph glyph-name="Yacute" unicode="&#xdd;" horiz-adv-x="645" 
d="M258 0v295l-240 447v8h133l176 -344l180 344h124v-8l-245 -443v-299h-128zM217 828v16l97 140h136v-15l-154 -141h-79z" />
    <glyph glyph-name="Thorn" unicode="&#xde;" horiz-adv-x="637" 
d="M87 0v750h129v-106h127q251 0 251 -248q0 -129 -71 -197t-196 -68h-111v-131h-129zM324 535h-108v-295h104q80 0 111 37.5t31 118.5q0 77 -30.5 108t-107.5 31z" />
    <glyph glyph-name="germandbls" unicode="&#xdf;" horiz-adv-x="720" 
d="M456 -8q-99 0 -147 18v104h7q56 -17 122 -17q102 0 102 68q0 25 -16 38.5t-52 28.5l-49 22q-102 43 -102 140q0 61 83 124q48 36 48 77q0 58 -95 58q-28 0 -47 -3.5t-39 -14.5t-30.5 -35t-10.5 -62v-538h-124v443h-85v104h85v15q0 65 36.5 108.5t91.5 61.5t125 18
q37 0 72.5 -7t69.5 -21.5t54.5 -43t20.5 -66.5q0 -10 -1.5 -19.5t-2.5 -17t-5.5 -15.5t-6.5 -13t-8.5 -13t-8.5 -11t-10 -11l-9.5 -9.5t-11 -9.5t-10.5 -9q-2 -2 -10.5 -9l-12.5 -10.5t-11 -11t-10.5 -13.5t-6.5 -14.5t-3 -17.5q0 -24 13.5 -37.5t39.5 -26.5l41 -20
q34 -16 51 -26t37 -28.5t28.5 -43.5t8.5 -60q0 -82 -56.5 -128t-154.5 -46z" />
    <glyph glyph-name="agrave" unicode="&#xe0;" horiz-adv-x="626" 
d="M222 -8q-76 0 -120.5 47t-44.5 138v94q0 124 84 200t205 76h193v-547h-124v91l-39 -34q-74 -65 -154 -65zM384 166l31 26v251h-62q-79 0 -125.5 -45.5t-46.5 -126.5v-82q0 -90 75 -90q51 0 128 67zM351 625l-155 141v15h136l98 -140v-16h-79z" />
    <glyph glyph-name="aacute" unicode="&#xe1;" horiz-adv-x="626" 
d="M222 -8q-76 0 -120.5 47t-44.5 138v94q0 124 84 200t205 76h193v-547h-124v91l-39 -34q-74 -65 -154 -65zM384 166l31 26v251h-62q-79 0 -125.5 -45.5t-46.5 -126.5v-82q0 -90 75 -90q51 0 128 67zM239 625v16l98 140h136v-15l-155 -141h-79z" />
    <glyph glyph-name="acircumflex" unicode="&#xe2;" horiz-adv-x="626" 
d="M222 -8q-76 0 -120.5 47t-44.5 138v94q0 124 84 200t205 76h193v-547h-124v91l-39 -34q-74 -65 -154 -65zM384 166l31 26v251h-62q-79 0 -125.5 -45.5t-46.5 -126.5v-82q0 -90 75 -90q51 0 128 67zM514 625h-84l-111 105l-108 -105h-83v16l132 149h122l132 -151v-14z" />
    <glyph glyph-name="atilde" unicode="&#xe3;" horiz-adv-x="626" 
d="M222 -8q-76 0 -120.5 47t-44.5 138v94q0 124 84 200t205 76h193v-547h-124v91l-39 -34q-74 -65 -154 -65zM384 166l31 26v251h-62q-79 0 -125.5 -45.5t-46.5 -126.5v-82q0 -90 75 -90q51 0 128 67zM141 625v77q15 26 40.5 47.5t56.5 21.5q30 0 79.5 -35.5t65.5 -35.5
q20 0 39 12.5t28.5 24t26.5 34.5h7v-73q-15 -26 -42.5 -49.5t-58.5 -23.5q-28 0 -78 36t-67 36q-7 0 -13.5 -1t-12.5 -4.5l-10.5 -6t-10.5 -8l-9.5 -8.5t-9 -11t-8 -10.5t-8.5 -11.5t-8 -11h-7z" />
    <glyph glyph-name="adieresis" unicode="&#xe4;" horiz-adv-x="626" 
d="M222 -8q-76 0 -120.5 47t-44.5 138v94q0 124 84 200t205 76h193v-547h-124v91l-39 -34q-74 -65 -154 -65zM384 166l31 26v251h-62q-79 0 -125.5 -45.5t-46.5 -126.5v-82q0 -90 75 -90q51 0 128 67zM129 606v113h124v-113h-124zM388 606v113h124v-113h-124z" />
    <glyph glyph-name="aring" unicode="&#xe5;" horiz-adv-x="626" 
d="M222 -8q-76 0 -120.5 47t-44.5 138v94q0 124 84 200t205 76h193v-547h-124v91l-39 -34q-74 -65 -154 -65zM384 166l31 26v251h-62q-79 0 -125.5 -45.5t-46.5 -126.5v-82q0 -90 75 -90q51 0 128 67zM321 625q-58 0 -91 27.5t-33 74.5q0 45 33 73t91 28t90.5 -27.5
t32.5 -73.5t-32.5 -74t-90.5 -28zM321 664q33 0 50 18.5t17 44.5t-17 44t-50 18t-49.5 -18t-16.5 -44t16.5 -44.5t49.5 -18.5z" />
    <glyph glyph-name="ae" unicode="&#xe6;" horiz-adv-x="935" 
d="M668 -8q-179 0 -231 116l-22 -17l-39 -34q-74 -65 -154 -65q-76 0 -120.5 47t-44.5 138v94q0 124 84 200t205 76h324q97 0 155 -40t58 -126q0 -78 -49.5 -117.5t-136.5 -39.5h-157v-13q0 -112 135 -112q78 0 162 30h8v-104q-90 -33 -177 -33zM384 166l31 26h2q-1 7 -1 21
v99q0 75 35 131h-98q-79 0 -125.5 -45.5t-46.5 -126.5v-82q0 -90 75 -90q51 0 128 67zM540 314v-7h139q46 0 66.5 17t20.5 53q0 38 -24.5 52t-71.5 14q-130 0 -130 -129z" />
    <glyph glyph-name="ccedilla" unicode="&#xe7;" horiz-adv-x="524" 
d="M304 -8q-116 0 -185 56t-69 169v103q0 108 73 171.5t175 63.5q97 0 170 -39v-160h-106v80q-22 12 -64 12q-55 0 -89.5 -33t-34.5 -98v-85q0 -65 34 -99t97 -34q81 0 151 32h8v-104q-72 -35 -160 -35zM161 -188v61h94q55 0 55 34q0 31 -51 58v12h65q27 -12 45 -35.5
t18 -46.5q0 -42 -31 -62.5t-79 -20.5h-116z" />
    <glyph glyph-name="egrave" unicode="&#xe8;" horiz-adv-x="569" 
d="M302 -8q-116 0 -184 54t-68 167v107q0 111 71 173t183 62q97 0 155 -40t58 -126q0 -78 -50 -118t-136 -40h-157v-20q0 -112 135 -112q78 0 162 30h8v-104q-92 -33 -177 -33zM174 322v-8h138q47 0 67 17.5t20 53.5q0 37 -24.5 51.5t-70.5 14.5q-130 0 -130 -129zM326 625
l-154 141v15h136l97 -140v-16h-79z" />
    <glyph glyph-name="eacute" unicode="&#xe9;" horiz-adv-x="569" 
d="M302 -8q-116 0 -184 54t-68 167v107q0 111 71 173t183 62q97 0 155 -40t58 -126q0 -78 -50 -118t-136 -40h-157v-20q0 -112 135 -112q78 0 162 30h8v-104q-92 -33 -177 -33zM174 322v-8h138q47 0 67 17.5t20 53.5q0 37 -24.5 51.5t-70.5 14.5q-130 0 -130 -129zM168 625
v16l98 140h135v-15l-154 -141h-79z" />
    <glyph glyph-name="ecircumflex" unicode="&#xea;" horiz-adv-x="569" 
d="M302 -8q-116 0 -184 54t-68 167v107q0 111 71 173t183 62q97 0 155 -40t58 -126q0 -78 -50 -118t-136 -40h-157v-20q0 -112 135 -112q78 0 162 30h8v-104q-92 -33 -177 -33zM174 322v-8h138q47 0 67 17.5t20 53.5q0 37 -24.5 51.5t-70.5 14.5q-130 0 -130 -129zM481 625
h-84l-110 105l-108 -105h-83v16l132 149h122l131 -151v-14z" />
    <glyph glyph-name="edieresis" unicode="&#xeb;" horiz-adv-x="569" 
d="M302 -8q-116 0 -184 54t-68 167v107q0 111 71 173t183 62q97 0 155 -40t58 -126q0 -78 -50 -118t-136 -40h-157v-20q0 -112 135 -112q78 0 162 30h8v-104q-92 -33 -177 -33zM174 322v-8h138q47 0 67 17.5t20 53.5q0 37 -24.5 51.5t-70.5 14.5q-130 0 -130 -129zM97 606
v113h124v-113h-124zM355 606v113h124v-113h-124z" />
    <glyph glyph-name="igrave" unicode="&#xec;" horiz-adv-x="313" 
d="M103 0v443h-87v104h211v-547h-124zM179 625l-155 141v15h136l98 -140v-16h-79z" />
    <glyph glyph-name="iacute" unicode="&#xed;" horiz-adv-x="313" 
d="M103 0v443h-87v104h211v-547h-124zM48 625v16l98 140h135v-15l-154 -141h-79z" />
    <glyph glyph-name="icircumflex" unicode="&#xee;" horiz-adv-x="313" 
d="M103 0v443h-87v104h211v-547h-124zM330 625h-84l-110 105l-109 -105h-83v16l132 149h122l132 -151v-14z" />
    <glyph glyph-name="idieresis" unicode="&#xef;" horiz-adv-x="313" 
d="M103 0v443h-87v104h211v-547h-124zM-42 606v113h124v-113h-124zM217 606v113h124v-113h-124z" />
    <glyph glyph-name="eth" unicode="&#xf0;" horiz-adv-x="626" 
d="M609 613h-70v-613h-124v91l-39 -34q-74 -65 -154 -65q-76 0 -120.5 47t-44.5 138v94q0 124 84 200t205 76h69v66h-130v82h130v55h124v-55h70v-82zM384 166l31 26v251h-62q-79 0 -125.5 -45.5t-46.5 -126.5v-82q0 -90 75 -90q51 0 128 67z" />
    <glyph glyph-name="ntilde" unicode="&#xf1;" horiz-adv-x="646" 
d="M87 0v547h124v-94l32 29q81 73 166 73q153 0 153 -182v-373h-124v354q0 51 -18 72.5t-53 21.5q-45 0 -125 -70l-31 -26v-352h-124zM151 625v77q44 69 98 69q30 0 79.5 -35.5t65.5 -35.5q20 0 39 12.5t29 24.5t25 34h8v-73q-16 -27 -43 -50t-58 -23q-28 0 -78 36t-67 36
q-7 0 -13.5 -1t-12.5 -4.5l-10.5 -6t-10.5 -8l-9.5 -8.5t-9 -11t-8 -10.5t-8.5 -11.5t-8 -11h-8z" />
    <glyph glyph-name="ograve" unicode="&#xf2;" horiz-adv-x="610" 
d="M305 -8q-257 0 -257 286q0 134 66 205.5t191 71.5q257 0 257 -277q0 -286 -257 -286zM305 99q72 0 102.5 45t30.5 134q0 87 -30 128.5t-103 41.5t-103 -41.5t-30 -128.5q0 -89 30.5 -134t102.5 -45zM343 625l-155 141v15h136l98 -140v-16h-79z" />
    <glyph glyph-name="oacute" unicode="&#xf3;" horiz-adv-x="610" 
d="M305 -8q-257 0 -257 286q0 134 66 205.5t191 71.5q257 0 257 -277q0 -286 -257 -286zM305 99q72 0 102.5 45t30.5 134q0 87 -30 128.5t-103 41.5t-103 -41.5t-30 -128.5q0 -89 30.5 -134t102.5 -45zM188 625v16l98 140h136v-15l-154 -141h-80z" />
    <glyph glyph-name="ocircumflex" unicode="&#xf4;" horiz-adv-x="610" 
d="M305 -8q-257 0 -257 286q0 134 66 205.5t191 71.5q257 0 257 -277q0 -286 -257 -286zM305 99q72 0 102.5 45t30.5 134q0 87 -30 128.5t-103 41.5t-103 -41.5t-30 -128.5q0 -89 30.5 -134t102.5 -45zM498 625h-84l-110 105l-109 -105h-83v16l132 149h122l132 -151v-14z
" />
    <glyph glyph-name="otilde" unicode="&#xf5;" horiz-adv-x="610" 
d="M305 -8q-257 0 -257 286q0 134 66 205.5t191 71.5q257 0 257 -277q0 -286 -257 -286zM305 99q72 0 102.5 45t30.5 134q0 87 -30 128.5t-103 41.5t-103 -41.5t-30 -128.5q0 -89 30.5 -134t102.5 -45zM133 625v77q15 25 41 47t56 22t79.5 -35.5t65.5 -35.5q20 0 39 12.5
t28.5 24t26.5 34.5h8v-73q-16 -27 -43.5 -50t-58.5 -23q-28 0 -78 36t-67 36q-19 0 -38 -13.5t-26 -23l-25 -35.5h-8z" />
    <glyph glyph-name="odieresis" unicode="&#xf6;" horiz-adv-x="610" 
d="M305 -8q-257 0 -257 286q0 134 66 205.5t191 71.5q257 0 257 -277q0 -286 -257 -286zM305 99q72 0 102.5 45t30.5 134q0 87 -30 128.5t-103 41.5t-103 -41.5t-30 -128.5q0 -89 30.5 -134t102.5 -45zM113 606v113h124v-113h-124zM372 606v113h124v-113h-124z" />
    <glyph glyph-name="divide" unicode="&#xf7;" 
d="M260 481v103h105v-103h-105zM94 315v104h437v-104h-437zM260 150v103h105v-103h-105z" />
    <glyph glyph-name="oslash" unicode="&#xf8;" horiz-adv-x="610" 
d="M48 0v12l53 63q-53 71 -53 203q0 134 66 205.5t191 71.5q98 0 160 -42l29 34h68v-12l-53 -64q53 -68 53 -193q0 -286 -257 -286q-100 0 -160 42l-29 -34h-68zM172 278q0 -63 14 -101l205 247q-34 24 -86 24q-73 0 -103 -41.5t-30 -128.5zM305 99q72 0 102.5 45t30.5 134
q0 61 -12 93l-206 -246q29 -26 85 -26z" />
    <glyph glyph-name="ugrave" unicode="&#xf9;" horiz-adv-x="646" 
d="M236 -8q-151 0 -151 182v373h123v-355q0 -50 17.5 -71.5t53.5 -21.5q43 0 125 70l32 27v351h123v-547h-123v94l-33 -30q-80 -72 -167 -72zM360 625l-154 141v15h136l97 -140v-16h-79z" />
    <glyph glyph-name="uacute" unicode="&#xfa;" horiz-adv-x="646" 
d="M236 -8q-151 0 -151 182v373h123v-355q0 -50 17.5 -71.5t53.5 -21.5q43 0 125 70l32 27v351h123v-547h-123v94l-33 -30q-80 -72 -167 -72zM214 625v16l98 140h135v-15l-154 -141h-79z" />
    <glyph glyph-name="ucircumflex" unicode="&#xfb;" horiz-adv-x="646" 
d="M236 -8q-151 0 -151 182v373h123v-355q0 -50 17.5 -71.5t53.5 -21.5q43 0 125 70l32 27v351h123v-547h-123v94l-33 -30q-80 -72 -167 -72zM516 625h-84l-111 105l-108 -105h-83v16l132 149h122l132 -151v-14z" />
    <glyph glyph-name="udieresis" unicode="&#xfc;" horiz-adv-x="646" 
d="M236 -8q-151 0 -151 182v373h123v-355q0 -50 17.5 -71.5t53.5 -21.5q43 0 125 70l32 27v351h123v-547h-123v94l-33 -30q-80 -72 -167 -72zM132 606v113h124v-113h-124zM391 606v113h124v-113h-124z" />
    <glyph glyph-name="yacute" unicode="&#xfd;" horiz-adv-x="643" 
d="M134 -188v104h104q102 0 148 39.5t46 130.5v27h-4q-100 -50 -174 -50q-79 0 -126 47t-47 142v295h124v-283q0 -95 84 -95q69 0 143 39v339h124v-464q0 -133 -77 -202t-213 -69h-132zM220 625v16l97 140h136v-15l-154 -141h-79z" />
    <glyph glyph-name="thorn" unicode="&#xfe;" horiz-adv-x="626" 
d="M87 -188v938h124v-294l39 34q75 65 154 65q76 0 120.5 -47t44.5 -138v-95q0 -123 -84 -199t-205 -76h-69v-188h-124zM242 381l-31 -27v-250h62q79 0 125.5 45t46.5 126v82q0 91 -75 91q-51 0 -128 -67z" />
    <glyph glyph-name="ydieresis" unicode="&#xff;" horiz-adv-x="643" 
d="M134 -188v104h104q102 0 148 39.5t46 130.5v27h-4q-100 -50 -174 -50q-79 0 -126 47t-47 142v295h124v-283q0 -95 84 -95q69 0 143 39v339h124v-464q0 -133 -77 -202t-213 -69h-132zM130 606v113h124v-113h-124zM389 606v113h124v-113h-124z" />
    <glyph glyph-name="Amacron" unicode="&#x100;" horiz-adv-x="706" 
d="M26 0v8q27 112 86 312q33 112 84 246.5t77 183.5h163q26 -49 77 -183.5t84 -246.5q59 -200 86 -312v-8h-136q-29 123 -43 176h-306l-44 -176h-128zM235 308q-5 -14 -6 -24h247q-1 4 -3.5 12t-3.5 12q-64 233 -116 340q-53 -109 -118 -340zM201 828v84h303v-84h-303z" />
    <glyph glyph-name="amacron" unicode="&#x101;" horiz-adv-x="626" 
d="M222 -8q-76 0 -120.5 47t-44.5 138v94q0 124 84 200t205 76h193v-547h-124v91l-39 -34q-74 -65 -154 -65zM384 166l31 26v251h-62q-79 0 -125.5 -45.5t-46.5 -126.5v-82q0 -90 75 -90q51 0 128 67zM173 625v84h303v-84h-303z" />
    <glyph glyph-name="Abreve" unicode="&#x102;" horiz-adv-x="706" 
d="M26 0v8q27 112 86 312q33 112 84 246.5t77 183.5h163q26 -49 77 -183.5t84 -246.5q59 -200 86 -312v-8h-136q-29 123 -43 176h-306l-44 -176h-128zM235 308q-5 -14 -6 -24h247q-1 4 -3.5 12t-3.5 12q-64 233 -116 340q-53 -109 -118 -340zM354 828q-82 0 -125.5 46
t-43.5 110h59q0 -38 32 -59.5t78 -21.5q45 0 77 22t32 59h58q0 -64 -43.5 -110t-123.5 -46z" />
    <glyph glyph-name="abreve" unicode="&#x103;" horiz-adv-x="626" 
d="M222 -8q-76 0 -120.5 47t-44.5 138v94q0 124 84 200t205 76h193v-547h-124v91l-39 -34q-74 -65 -154 -65zM384 166l31 26v251h-62q-79 0 -125.5 -45.5t-46.5 -126.5v-82q0 -90 75 -90q51 0 128 67zM325 625q-81 0 -125 46t-44 110h60q0 -37 31.5 -59t77.5 -22t78 22
t32 59h58q0 -64 -43.5 -110t-124.5 -46z" />
    <glyph glyph-name="Aogonek" unicode="&#x104;" horiz-adv-x="706" 
d="M26 0v8q27 112 86 312q33 112 84 246.5t77 183.5h163q26 -49 77 -183.5t84 -246.5q59 -200 86 -312v-8h-136q-29 123 -43 176h-306l-44 -176h-128zM235 308q-5 -14 -6 -24h247q-1 4 -3.5 12t-3.5 12q-64 233 -116 340q-53 -109 -118 -340zM634 -188q-48 0 -79 20.5
t-31 62.5q0 23 18 46.5t45 35.5h64v-12q-50 -26 -50 -58q0 -34 54 -34h94v-61h-115z" />
    <glyph glyph-name="aogonek" unicode="&#x105;" horiz-adv-x="626" 
d="M222 -8q-76 0 -120.5 47t-44.5 138v94q0 124 84 200t205 76h193v-547h-124v91l-39 -34q-74 -65 -154 -65zM384 166l31 26v251h-62q-79 0 -125.5 -45.5t-46.5 -126.5v-82q0 -90 75 -90q51 0 128 67zM490 -188q-47 0 -78 20.5t-31 62.5q0 23 18 46.5t44 35.5h65v-12
q-51 -25 -51 -58q0 -34 55 -34h93v-61h-115z" />
    <glyph glyph-name="Cacute" unicode="&#x106;" horiz-adv-x="654" 
d="M390 -8q-166 0 -254 90.5t-88 248.5v88q0 161 99.5 250t266.5 89q105 0 190 -33v-189h-118v103q-31 10 -88 10q-101 0 -159.5 -56.5t-58.5 -170.5v-91q0 -108 55.5 -169t154.5 -61h47q76 0 159 31h8v-105q-23 -11 -74 -23t-93 -12h-47zM284 828v16l98 140h136v-15
l-155 -141h-79z" />
    <glyph glyph-name="cacute" unicode="&#x107;" horiz-adv-x="524" 
d="M304 -8q-116 0 -185 56t-69 169v103q0 108 73 171.5t175 63.5q97 0 170 -39v-160h-106v80q-22 12 -64 12q-55 0 -89.5 -33t-34.5 -98v-85q0 -65 34 -99t97 -34q81 0 151 32h8v-104q-72 -35 -160 -35zM185 625v16l97 140h136v-15l-154 -141h-79z" />
    <glyph glyph-name="Ccircumflex" unicode="&#x108;" horiz-adv-x="654" 
d="M390 -8q-166 0 -254 90.5t-88 248.5v88q0 161 99.5 250t266.5 89q105 0 190 -33v-189h-118v103q-31 10 -88 10q-101 0 -159.5 -56.5t-58.5 -170.5v-91q0 -108 55.5 -169t154.5 -61h47q76 0 159 31h8v-105q-23 -11 -74 -23t-93 -12h-47zM566 828h-84l-110 106l-108 -106
h-83v16l131 149h123l131 -151v-14z" />
    <glyph glyph-name="ccircumflex" unicode="&#x109;" horiz-adv-x="524" 
d="M304 -8q-116 0 -185 56t-69 169v103q0 108 73 171.5t175 63.5q97 0 170 -39v-160h-106v80q-22 12 -64 12q-55 0 -89.5 -33t-34.5 -98v-85q0 -65 34 -99t97 -34q81 0 151 32h8v-104q-72 -35 -160 -35zM482 625h-84l-110 105l-108 -105h-83v16l132 149h122l131 -151v-14z
" />
    <glyph glyph-name="Cdotaccent" unicode="&#x10a;" horiz-adv-x="654" 
d="M390 -8q-166 0 -254 90.5t-88 248.5v88q0 161 99.5 250t266.5 89q105 0 190 -33v-189h-118v103q-31 10 -88 10q-101 0 -159.5 -56.5t-58.5 -170.5v-91q0 -108 55.5 -169t154.5 -61h47q76 0 159 31h8v-105q-23 -11 -74 -23t-93 -12h-47zM323 828v112h124v-112h-124z" />
    <glyph glyph-name="cdotaccent" unicode="&#x10b;" horiz-adv-x="524" 
d="M304 -8q-116 0 -185 56t-69 169v103q0 108 73 171.5t175 63.5q97 0 170 -39v-160h-106v80q-22 12 -64 12q-55 0 -89.5 -33t-34.5 -98v-85q0 -65 34 -99t97 -34q81 0 151 32h8v-104q-72 -35 -160 -35zM224 625v112h124v-112h-124z" />
    <glyph glyph-name="Ccaron" unicode="&#x10c;" horiz-adv-x="654" 
d="M390 -8q-166 0 -254 90.5t-88 248.5v88q0 161 99.5 250t266.5 89q105 0 190 -33v-189h-118v103q-31 10 -88 10q-101 0 -159.5 -56.5t-58.5 -170.5v-91q0 -108 55.5 -169t154.5 -61h47q76 0 159 31h8v-105q-23 -11 -74 -23t-93 -12h-47zM196 993h83l109 -105l110 105h84
v-15l-132 -150h-122l-132 151v14z" />
    <glyph glyph-name="ccaron" unicode="&#x10d;" horiz-adv-x="524" 
d="M304 -8q-116 0 -185 56t-69 169v103q0 108 73 171.5t175 63.5q97 0 170 -39v-160h-106v80q-22 12 -64 12q-55 0 -89.5 -33t-34.5 -98v-85q0 -65 34 -99t97 -34q81 0 151 32h8v-104q-72 -35 -160 -35zM93 790h83l108 -105l111 105h84v-16l-132 -149h-122l-132 150v15z" />
    <glyph glyph-name="Dcaron" unicode="&#x10e;" horiz-adv-x="731" 
d="M87 0v750h248q172 0 258.5 -81.5t86.5 -233.5v-104q0 -154 -82.5 -242.5t-253.5 -88.5h-257zM216 108h128q204 0 204 230v91q0 213 -213 213h-119v-534zM138 993h83l108 -105l110 105h84v-15l-131 -150h-122l-132 151v14z" />
    <glyph glyph-name="dcaron" unicode="&#x10f;" horiz-adv-x="626" 
d="M222 -8q-76 0 -120.5 47t-44.5 138v94q0 124 84 200t205 76h69v203h124v-750h-124v91l-39 -34q-74 -65 -154 -65zM384 166l31 26v251h-62q-79 0 -125.5 -45.5t-46.5 -126.5v-82q0 -90 75 -90q51 0 128 67zM582 594l44 156h97v-53l-67 -103h-74z" />
    <glyph glyph-name="Dcroat" unicode="&#x110;" horiz-adv-x="731" 
d="M87 0v340h-56v98h56v312h248q172 0 258.5 -81.5t86.5 -233.5v-104q0 -154 -82.5 -242.5t-253.5 -88.5h-257zM216 108h128q204 0 204 230v91q0 213 -213 213h-119v-204h113v-98h-113v-232z" />
    <glyph glyph-name="dcroat" unicode="&#x111;" horiz-adv-x="626" 
d="M609 613h-70v-613h-124v91l-39 -34q-74 -65 -154 -65q-76 0 -120.5 47t-44.5 138v94q0 124 84 200t205 76h69v66h-130v82h130v55h124v-55h70v-82zM384 166l31 26v251h-62q-79 0 -125.5 -45.5t-46.5 -126.5v-82q0 -90 75 -90q51 0 128 67z" />
    <glyph glyph-name="Emacron" unicode="&#x112;" horiz-adv-x="605" 
d="M283 0q-196 0 -196 203v547h450v-108h-321v-198h289v-109h-289v-124q0 -54 22 -78.5t69 -24.5h236v-108h-260zM159 828v84h303v-84h-303z" />
    <glyph glyph-name="emacron" unicode="&#x113;" horiz-adv-x="569" 
d="M302 -8q-116 0 -184 54t-68 167v107q0 111 71 173t183 62q97 0 155 -40t58 -126q0 -78 -50 -118t-136 -40h-157v-20q0 -112 135 -112q78 0 162 30h8v-104q-92 -33 -177 -33zM174 322v-8h138q47 0 67 17.5t20 53.5q0 37 -24.5 51.5t-70.5 14.5q-130 0 -130 -129zM141 625
v84h302v-84h-302z" />
    <glyph glyph-name="Ebreve" unicode="&#x114;" horiz-adv-x="605" 
d="M283 0q-196 0 -196 203v547h450v-108h-321v-198h289v-109h-289v-124q0 -54 22 -78.5t69 -24.5h236v-108h-260zM314 828q-81 0 -124.5 46t-43.5 110h59q0 -37 31.5 -59t77.5 -22t78 22t32 59h58q0 -64 -43.5 -110t-124.5 -46z" />
    <glyph glyph-name="ebreve" unicode="&#x115;" horiz-adv-x="569" 
d="M302 -8q-116 0 -184 54t-68 167v107q0 111 71 173t183 62q97 0 155 -40t58 -126q0 -78 -50 -118t-136 -40h-157v-20q0 -112 135 -112q78 0 162 30h8v-104q-92 -33 -177 -33zM174 322v-8h138q47 0 67 17.5t20 53.5q0 37 -24.5 51.5t-70.5 14.5q-130 0 -130 -129zM289 625
q-81 0 -125 46t-44 110h60q0 -38 31.5 -59.5t77.5 -21.5t77.5 22t31.5 59h59q0 -64 -43.5 -110t-124.5 -46z" />
    <glyph glyph-name="Edotaccent" unicode="&#x116;" horiz-adv-x="605" 
d="M283 0q-196 0 -196 203v547h450v-108h-321v-198h289v-109h-289v-124q0 -54 22 -78.5t69 -24.5h236v-108h-260zM252 828v112h124v-112h-124z" />
    <glyph glyph-name="edotaccent" unicode="&#x117;" horiz-adv-x="569" 
d="M302 -8q-116 0 -184 54t-68 167v107q0 111 71 173t183 62q97 0 155 -40t58 -126q0 -78 -50 -118t-136 -40h-157v-20q0 -112 135 -112q78 0 162 30h8v-104q-92 -33 -177 -33zM174 322v-8h138q47 0 67 17.5t20 53.5q0 37 -24.5 51.5t-70.5 14.5q-130 0 -130 -129zM227 625
v112h124v-112h-124z" />
    <glyph glyph-name="Eogonek" unicode="&#x118;" horiz-adv-x="605" 
d="M283 0q-196 0 -196 203v547h450v-108h-321v-198h289v-109h-289v-124q0 -54 22 -78.5t69 -24.5h236v-108h-260zM479 -188q-48 0 -79 20.5t-31 62.5q0 23 18 46.5t45 35.5h64v-12q-51 -27 -51 -58q0 -34 55 -34h94v-61h-115z" />
    <glyph glyph-name="eogonek" unicode="&#x119;" horiz-adv-x="569" 
d="M302 -8q-116 0 -184 54t-68 167v107q0 111 71 173t183 62q97 0 155 -40t58 -126q0 -78 -50 -118t-136 -40h-157v-20q0 -112 135 -112q78 0 162 30h8v-104q-92 -33 -177 -33zM174 322v-8h138q47 0 67 17.5t20 53.5q0 37 -24.5 51.5t-70.5 14.5q-130 0 -130 -129zM315 -188
q-47 0 -78 20.5t-31 62.5q0 23 18 46.5t45 35.5h64v-12q-51 -27 -51 -58q0 -34 55 -34h94v-61h-116z" />
    <glyph glyph-name="Ecaron" unicode="&#x11a;" horiz-adv-x="605" 
d="M283 0q-196 0 -196 203v547h450v-108h-321v-198h289v-109h-289v-124q0 -54 22 -78.5t69 -24.5h236v-108h-260zM117 993h83l109 -105l110 105h84v-15l-132 -150h-122l-132 151v14z" />
    <glyph glyph-name="ecaron" unicode="&#x11b;" horiz-adv-x="569" 
d="M302 -8q-116 0 -184 54t-68 167v107q0 111 71 173t183 62q97 0 155 -40t58 -126q0 -78 -50 -118t-136 -40h-157v-20q0 -112 135 -112q78 0 162 30h8v-104q-92 -33 -177 -33zM174 322v-8h138q47 0 67 17.5t20 53.5q0 37 -24.5 51.5t-70.5 14.5q-130 0 -130 -129zM104 790
h83l108 -105l110 105h84v-16l-132 -149h-122l-131 150v15z" />
    <glyph glyph-name="Gcircumflex" unicode="&#x11c;" horiz-adv-x="716" 
d="M406 -8q-166 0 -259.5 91.5t-93.5 247.5v93q0 163 105 248.5t271 85.5q119 0 213 -37v-106h-8q-102 34 -208 34q-111 0 -176.5 -55t-65.5 -170v-93q0 -108 59.5 -169t162.5 -61h35q48 0 83 10v166h-135v109h253v-353q-32 -14 -90.5 -27.5t-110.5 -13.5h-35zM594 828h-84
l-111 106l-108 -106h-83v16l132 149h122l132 -151v-14z" />
    <glyph glyph-name="gcircumflex" unicode="&#x11d;" horiz-adv-x="626" 
d="M114 -188v104h108q102 0 147.5 34.5t45.5 123.5v15l-21 -10q-7 -3 -25.5 -12t-30 -13.5t-29.5 -10.5t-36.5 -9t-38.5 -3q-81 0 -129 49t-48 143v48q0 127 80 201.5t200 74.5h202v-474q0 -131 -76 -196t-214 -65h-135zM395 172l20 10v261h-71q-78 0 -120.5 -45t-42.5 -127
v-36q0 -97 84 -97q58 0 130 34zM518 625h-84l-111 105l-108 -105h-83v16l132 149h122l132 -151v-14z" />
    <glyph glyph-name="Gbreve" unicode="&#x11e;" horiz-adv-x="716" 
d="M406 -8q-166 0 -259.5 91.5t-93.5 247.5v93q0 163 105 248.5t271 85.5q119 0 213 -37v-106h-8q-102 34 -208 34q-111 0 -176.5 -55t-65.5 -170v-93q0 -108 59.5 -169t162.5 -61h35q48 0 83 10v166h-135v109h253v-353q-32 -14 -90.5 -27.5t-110.5 -13.5h-35zM390 828
q-82 0 -125.5 46t-43.5 110h59q0 -38 32 -59.5t78 -21.5q45 0 77 22t32 59h59q0 -64 -43.5 -110t-124.5 -46z" />
    <glyph glyph-name="gbreve" unicode="&#x11f;" horiz-adv-x="626" 
d="M114 -188v104h108q102 0 147.5 34.5t45.5 123.5v15l-21 -10q-7 -3 -25.5 -12t-30 -13.5t-29.5 -10.5t-36.5 -9t-38.5 -3q-81 0 -129 49t-48 143v48q0 127 80 201.5t200 74.5h202v-474q0 -131 -76 -196t-214 -65h-135zM395 172l20 10v261h-71q-78 0 -120.5 -45t-42.5 -127
v-36q0 -97 84 -97q58 0 130 34zM325 625q-81 0 -125 46t-44 110h60q0 -37 31.5 -59t77.5 -22t78 22t32 59h58q0 -64 -43.5 -110t-124.5 -46z" />
    <glyph glyph-name="Gdotaccent" unicode="&#x120;" horiz-adv-x="716" 
d="M406 -8q-166 0 -259.5 91.5t-93.5 247.5v93q0 163 105 248.5t271 85.5q119 0 213 -37v-106h-8q-102 34 -208 34q-111 0 -176.5 -55t-65.5 -170v-93q0 -108 59.5 -169t162.5 -61h35q48 0 83 10v166h-135v109h253v-353q-32 -14 -90.5 -27.5t-110.5 -13.5h-35zM343 828v112
h124v-112h-124z" />
    <glyph glyph-name="gdotaccent" unicode="&#x121;" horiz-adv-x="626" 
d="M114 -188v104h108q102 0 147.5 34.5t45.5 123.5v15l-21 -10q-7 -3 -25.5 -12t-30 -13.5t-29.5 -10.5t-36.5 -9t-38.5 -3q-81 0 -129 49t-48 143v48q0 127 80 201.5t200 74.5h202v-474q0 -131 -76 -196t-214 -65h-135zM395 172l20 10v261h-71q-78 0 -120.5 -45t-42.5 -127
v-36q0 -97 84 -97q58 0 130 34zM263 625v112h124v-112h-124z" />
    <glyph glyph-name="Gcommaaccent" unicode="&#x122;" horiz-adv-x="716" 
d="M406 -8q-166 0 -259.5 91.5t-93.5 247.5v93q0 163 105 248.5t271 85.5q119 0 213 -37v-106h-8q-102 34 -208 34q-111 0 -176.5 -55t-65.5 -170v-93q0 -108 59.5 -169t162.5 -61h35q48 0 83 10v166h-135v109h253v-353q-32 -14 -90.5 -27.5t-110.5 -13.5h-35zM291 -195
l44 156h97v-53l-67 -103h-74z" />
    <glyph glyph-name="gcommaaccent" unicode="&#x123;" horiz-adv-x="626" 
d="M114 -188v104h108q102 0 147.5 34.5t45.5 123.5v15l-21 -10q-7 -3 -25.5 -12t-30 -13.5t-29.5 -10.5t-36.5 -9t-38.5 -3q-81 0 -129 49t-48 143v48q0 127 80 201.5t200 74.5h202v-474q0 -131 -76 -196t-214 -65h-135zM395 172l20 10v261h-71q-78 0 -120.5 -45t-42.5 -127
v-36q0 -97 84 -97q58 0 130 34zM422 750l-44 -156h-97v52l67 104h74z" />
    <glyph glyph-name="Hcircumflex" unicode="&#x124;" horiz-adv-x="754" 
d="M86 0v750h129v-303h324v303h129v-750h-129v339h-324v-339h-129zM569 828h-84l-110 106l-108 -106h-83v16l131 149h122l132 -151v-14z" />
    <glyph glyph-name="hcircumflex" unicode="&#x125;" horiz-adv-x="646" 
d="M438 0v354q0 51 -18 72.5t-53 21.5q-45 0 -125 -70l-31 -26v-352h-124v750h124v-297l32 29q81 73 166 73q153 0 153 -182v-373h-124zM344 819h-84l-111 106l-108 -106h-83v16l132 149h122l132 -151v-14z" />
    <glyph glyph-name="Hbar" unicode="&#x126;" horiz-adv-x="753" 
d="M17 639h70v111h129v-111h321v111h129v-111h70v-109h-70v-530h-129v339h-321v-339h-129v530h-70v109zM216 447h321v83h-321v-83z" />
    <glyph glyph-name="hbar" unicode="&#x127;" horiz-adv-x="646" 
d="M438 0v354q0 51 -18 72.5t-53 21.5q-45 0 -125 -70l-31 -26v-352h-124v613h-70v82h70v55h124v-55h130v-82h-130v-160l32 29q81 73 166 73q153 0 153 -182v-373h-124z" />
    <glyph glyph-name="Itilde" unicode="&#x128;" horiz-adv-x="302" 
d="M87 0v750h129v-750h-129zM-21 828v77q45 70 98 70q30 0 79.5 -36t65.5 -36q20 0 38.5 12t29 25t25.5 35h8v-74q-15 -26 -42.5 -49.5t-58.5 -23.5q-28 0 -78 36t-67 36q-7 0 -13.5 -1t-12.5 -4.5l-10.5 -6t-10.5 -8l-9.5 -8.5t-9 -11t-8 -10.5t-8.5 -11.5t-8 -11h-8z" />
    <glyph glyph-name="itilde" unicode="&#x129;" horiz-adv-x="313" 
d="M103 0v443h-87v104h211v-547h-124zM-34 625v77q15 25 41 47t56 22t79.5 -35.5t65.5 -35.5q20 0 39 12.5t28.5 24t26.5 34.5h8v-73q-16 -27 -43.5 -50t-58.5 -23q-28 0 -78 36t-67 36q-19 0 -38 -13.5t-26 -23l-25 -35.5h-8z" />
    <glyph glyph-name="Imacron" unicode="&#x12a;" horiz-adv-x="302" 
d="M87 0v750h129v-750h-129zM0 828v84h303v-84h-303z" />
    <glyph glyph-name="imacron" unicode="&#x12b;" horiz-adv-x="313" 
d="M103 0v443h-87v104h211v-547h-124zM-26 625v84h302v-84h-302z" />
    <glyph glyph-name="Ibreve" unicode="&#x12c;" horiz-adv-x="302" 
d="M87 0v750h129v-750h-129zM151 828q-81 0 -125 46t-44 110h60q0 -37 31.5 -59t77.5 -22t78 22t32 59h58q0 -64 -43.5 -110t-124.5 -46z" />
    <glyph glyph-name="ibreve" unicode="&#x12d;" horiz-adv-x="313" 
d="M103 0v443h-87v104h211v-547h-124zM157 625q-81 0 -125 46t-44 110h60q0 -37 31.5 -59t77.5 -22t78 22t32 59h58q0 -64 -43.5 -110t-124.5 -46z" />
    <glyph glyph-name="Iogonek" unicode="&#x12e;" horiz-adv-x="302" 
d="M87 0v750h129v-750h-129zM163 -188q-48 0 -78.5 20.5t-30.5 62.5q0 23 18 46.5t44 35.5h65v-12q-51 -25 -51 -58q0 -34 55 -34h93v-61h-115z" />
    <glyph glyph-name="iogonek" unicode="&#x12f;" horiz-adv-x="313" 
d="M103 638v112h124v-112h-124zM103 0v443h-87v104h211v-547h-124zM177 -188q-48 0 -79 20.5t-31 62.5q0 23 18 46.5t45 35.5h64v-12q-50 -26 -50 -58q0 -34 54 -34h94v-61h-115z" />
    <glyph glyph-name="Idotaccent" unicode="&#x130;" horiz-adv-x="302" 
d="M87 0v750h129v-750h-129zM89 828v112h124v-112h-124z" />
    <glyph glyph-name="dotlessi" unicode="&#x131;" horiz-adv-x="313" 
d="M103 0v443h-87v104h211v-547h-124z" />
    <glyph glyph-name="IJ" unicode="&#x132;" horiz-adv-x="756" 
d="M87 0v750h129v-750h-129zM349 0v108h81q111 0 111 123v411h-181v108h309v-519q0 -109 -61.5 -170t-170.5 -61h-88z" />
    <glyph glyph-name="ij" unicode="&#x133;" horiz-adv-x="626" 
d="M103 638v112h124v-112h-124zM103 0v443h-87v104h211v-547h-124zM415 638v112h124v-112h-124zM268 -188v104h32q64 0 89.5 31t25.5 100v396h-87v104h211v-496q0 -120 -58.5 -179.5t-168.5 -59.5h-44z" />
    <glyph glyph-name="Jcircumflex" unicode="&#x134;" horiz-adv-x="467" 
d="M40 0v108h101q111 0 111 123v411h-181v108h309v-519q0 -109 -61.5 -170t-171.5 -61h-107zM426 828h-84l-111 106l-108 -106h-83v16l132 149h122l132 -151v-14z" />
    <glyph glyph-name="jcircumflex" unicode="&#x135;" horiz-adv-x="317" 
d="M-37 -188v104h32q64 0 89.5 31t25.5 100v396h-87v104h211v-496q0 -120 -58.5 -179.5t-168.5 -59.5h-44zM344 625h-84l-111 105l-108 -105h-83v16l132 149h122l132 -151v-14z" />
    <glyph glyph-name="Kcommaaccent" unicode="&#x136;" horiz-adv-x="688" 
d="M87 0v750h129v-307h44l259 307h141v-8l-298 -346l311 -388v-8h-149l-269 338h-39v-338h-129zM242 -195l44 156h97v-53l-67 -103h-74z" />
    <glyph glyph-name="kcommaaccent" unicode="&#x137;" horiz-adv-x="584" 
d="M86 0v750h124v-405h48l170 202h136v-8l-205 -238l210 -293v-8h-140l-171 242h-48v-242h-124zM210 -195l44 156h97v-53l-67 -103h-74z" />
    <glyph glyph-name="Lacute" unicode="&#x139;" horiz-adv-x="537" 
d="M283 0q-97 0 -146.5 52.5t-49.5 150.5v547h129v-539q0 -54 22 -78.5t69 -24.5h207v-108h-231zM116 828v16l98 140h136v-15l-155 -141h-79z" />
    <glyph glyph-name="lacute" unicode="&#x13a;" horiz-adv-x="305" 
d="M94 0v646h-87v104h211v-750h-124zM51 828v16l97 140h136v-15l-154 -141h-79z" />
    <glyph glyph-name="Lcommaaccent" unicode="&#x13b;" horiz-adv-x="537" 
d="M283 0q-97 0 -146.5 52.5t-49.5 150.5v547h129v-539q0 -54 22 -78.5t69 -24.5h207v-108h-231zM198 -195l44 156h97v-53l-67 -103h-74z" />
    <glyph glyph-name="lcommaaccent" unicode="&#x13c;" horiz-adv-x="305" 
d="M94 0v646h-87v104h211v-750h-124zM62 -195l44 156h97v-53l-66 -103h-75z" />
    <glyph glyph-name="Lcaron" unicode="&#x13d;" horiz-adv-x="537" 
d="M283 0q-97 0 -146.5 52.5t-49.5 150.5v547h129v-539q0 -54 22 -78.5t69 -24.5h207v-108h-231zM289 594l44 156h97v-53l-67 -103h-74z" />
    <glyph glyph-name="lcaron" unicode="&#x13e;" horiz-adv-x="305" 
d="M94 0v646h-87v104h211v-750h-124zM262 594l44 156h96v-53l-66 -103h-74z" />
    <glyph glyph-name="Ldot" unicode="&#x13f;" horiz-adv-x="537" 
d="M283 0q-97 0 -146.5 52.5t-49.5 150.5v547h129v-539q0 -54 22 -78.5t69 -24.5h207v-108h-231zM313 364v113h124v-113h-124z" />
    <glyph glyph-name="ldot" unicode="&#x140;" horiz-adv-x="375" 
d="M94 0v646h-87v104h211v-750h-124zM271 364v113h124v-113h-124z" />
    <glyph glyph-name="Lslash" unicode="&#x141;" horiz-adv-x="516" 
d="M402 461l-186 -104v-146q0 -54 22 -78.5t69 -24.5h207v-108h-231q-97 0 -146.5 52.5t-49.5 150.5v83l-60 -32h-7v90l67 37v369h129v-298l179 99h7v-90z" />
    <glyph glyph-name="lslash" unicode="&#x142;" horiz-adv-x="305" 
d="M293 469l-75 -59v-410h-124v312l-71 -54h-7v86l78 60v242h-87v104h211v-248l67 53h8v-86z" />
    <glyph glyph-name="Nacute" unicode="&#x143;" horiz-adv-x="758" 
d="M86 0v750h103l354 -511v511h129v-750h-105l-352 511v-511h-129zM270 828v16l97 140h136v-15l-154 -141h-79z" />
    <glyph glyph-name="nacute" unicode="&#x144;" horiz-adv-x="646" 
d="M87 0v547h124v-94l32 29q81 73 166 73q153 0 153 -182v-373h-124v354q0 51 -18 72.5t-53 21.5q-45 0 -125 -70l-31 -26v-352h-124zM222 625v16l97 140h136v-15l-154 -141h-79z" />
    <glyph glyph-name="Ncommaaccent" unicode="&#x145;" horiz-adv-x="758" 
d="M86 0v750h103l354 -511v511h129v-750h-105l-352 511v-511h-129zM289 -195l44 156h97v-53l-67 -103h-74z" />
    <glyph glyph-name="ncommaaccent" unicode="&#x146;" horiz-adv-x="646" 
d="M87 0v547h124v-94l32 29q81 73 166 73q153 0 153 -182v-373h-124v354q0 51 -18 72.5t-53 21.5q-45 0 -125 -70l-31 -26v-352h-124zM226 -195l44 156h96v-53l-66 -103h-74z" />
    <glyph glyph-name="Ncaron" unicode="&#x147;" horiz-adv-x="758" 
d="M86 0v750h103l354 -511v511h129v-750h-105l-352 511v-511h-129zM182 993h83l108 -105l110 105h84v-15l-131 -150h-123l-131 151v14z" />
    <glyph glyph-name="ncaron" unicode="&#x148;" horiz-adv-x="646" 
d="M87 0v547h124v-94l32 29q81 73 166 73q153 0 153 -182v-373h-124v354q0 51 -18 72.5t-53 21.5q-45 0 -125 -70l-31 -26v-352h-124zM130 790h83l108 -105l111 105h84v-16l-132 -149h-122l-132 150v15z" />
    <glyph glyph-name="napostrophe" unicode="&#x149;" horiz-adv-x="646" 
d="M87 0v547h124v-94l32 29q81 73 166 73q153 0 153 -182v-373h-124v354q0 51 -18 72.5t-53 21.5q-45 0 -125 -70l-31 -26v-352h-124zM15 594l44 156h96v-53l-66 -103h-74z" />
    <glyph glyph-name="Eng" unicode="&#x14a;" horiz-adv-x="758" 
d="M332 -218v109h101q111 0 111 123v20l-329 477v-511h-129v750h103l354 -511v511h129v-736q0 -110 -61.5 -171t-171.5 -61h-107z" />
    <glyph glyph-name="eng" unicode="&#x14b;" horiz-adv-x="646" 
d="M291 -188v104h32q64 0 89.5 31t25.5 100v307q0 51 -18 72.5t-53 21.5q-45 0 -125 -70l-31 -26v-352h-124v547h124v-94l32 29q81 73 166 73q153 0 153 -182v-322q0 -120 -58.5 -179.5t-168.5 -59.5h-44z" />
    <glyph glyph-name="Omacron" unicode="&#x14c;" horiz-adv-x="748" 
d="M374 -8q-160 0 -243 93.5t-83 266.5v49q0 170 83.5 263.5t242.5 93.5q160 0 243 -92t83 -265v-49q0 -171 -83.5 -265.5t-242.5 -94.5zM374 101q102 0 148 62.5t46 188.5v49q0 125 -46 186.5t-148 61.5t-148 -61.5t-46 -186.5v-49q0 -126 46 -188.5t148 -62.5zM223 828v84
h302v-84h-302z" />
    <glyph glyph-name="omacron" unicode="&#x14d;" horiz-adv-x="610" 
d="M305 -8q-257 0 -257 286q0 134 66 205.5t191 71.5q257 0 257 -277q0 -286 -257 -286zM305 99q72 0 102.5 45t30.5 134q0 87 -30 128.5t-103 41.5t-103 -41.5t-30 -128.5q0 -89 30.5 -134t102.5 -45zM153 625v84h303v-84h-303z" />
    <glyph glyph-name="Obreve" unicode="&#x14e;" horiz-adv-x="748" 
d="M374 -8q-160 0 -243 93.5t-83 266.5v49q0 170 83.5 263.5t242.5 93.5q160 0 243 -92t83 -265v-49q0 -171 -83.5 -265.5t-242.5 -94.5zM374 101q102 0 148 62.5t46 188.5v49q0 125 -46 186.5t-148 61.5t-148 -61.5t-46 -186.5v-49q0 -126 46 -188.5t148 -62.5zM374 828
q-81 0 -125 46t-44 110h60q0 -38 31.5 -59.5t77.5 -21.5t77.5 22t31.5 59h59q0 -64 -44 -110t-124 -46z" />
    <glyph glyph-name="obreve" unicode="&#x14f;" horiz-adv-x="610" 
d="M305 -8q-257 0 -257 286q0 134 66 205.5t191 71.5q257 0 257 -277q0 -286 -257 -286zM305 99q72 0 102.5 45t30.5 134q0 87 -30 128.5t-103 41.5t-103 -41.5t-30 -128.5q0 -89 30.5 -134t102.5 -45zM306 625q-82 0 -125.5 46t-43.5 110h59q0 -38 32 -59.5t78 -21.5
q45 0 77 22t32 59h59q0 -64 -44 -110t-124 -46z" />
    <glyph glyph-name="Ohungarumlaut" unicode="&#x150;" horiz-adv-x="748" 
d="M374 -8q-160 0 -243 93.5t-83 266.5v49q0 170 83.5 263.5t242.5 93.5q160 0 243 -92t83 -265v-49q0 -171 -83.5 -265.5t-242.5 -94.5zM374 101q102 0 148 62.5t46 188.5v49q0 125 -46 186.5t-148 61.5t-148 -61.5t-46 -186.5v-49q0 -126 46 -188.5t148 -62.5zM379 828v16
l107 140h122v-15l-159 -141h-70zM178 828v16l110 140h121v-15l-159 -141h-72z" />
    <glyph glyph-name="ohungarumlaut" unicode="&#x151;" horiz-adv-x="610" 
d="M305 -8q-257 0 -257 286q0 134 66 205.5t191 71.5q257 0 257 -277q0 -286 -257 -286zM305 99q72 0 102.5 45t30.5 134q0 87 -30 128.5t-103 41.5t-103 -41.5t-30 -128.5q0 -89 30.5 -134t102.5 -45zM311 625v16l107 140h122v-15l-159 -141h-70zM109 625v16l111 140h121
v-15l-159 -141h-73z" />
    <glyph glyph-name="OE" unicode="&#x152;" horiz-adv-x="1002" 
d="M374 0q-160 0 -243.5 93t-83.5 266v35q0 168 82.5 261t239.5 94l563 1v-109h-322v-197h290v-109h-290v-227h328v-108h-564zM179 359q0 -126 46.5 -188.5t148.5 -62.5h108v533h-108q-102 0 -148.5 -61t-46.5 -186v-35z" />
    <glyph glyph-name="oe" unicode="&#x153;" horiz-adv-x="957" 
d="M305 -8q-257 0 -257 286q0 134 66 205.5t191 71.5q129 0 195 -72q70 72 191 72q98 0 156 -40t58 -126q0 -78 -49.5 -118t-135.5 -40h-158v-20q0 -112 135 -112q78 0 162 30h8v-104q-88 -33 -177 -33q-132 0 -197 66q-65 -66 -188 -66zM305 99q70 0 101 43t32 128v16
q-1 83 -31.5 122.5t-101.5 39.5q-73 0 -103 -41.5t-30 -128.5q0 -89 30.5 -134t102.5 -45zM562 322v-8h139q47 0 67 17.5t20 53.5q0 37 -25 51.5t-72 14.5q-129 0 -129 -129z" />
    <glyph glyph-name="Racute" unicode="&#x154;" horiz-adv-x="671" 
d="M87 0v750h256q126 0 188.5 -55t62.5 -181q0 -152 -130 -216q57 -50 110.5 -144.5t66.5 -145.5v-8h-138q-12 49 -62.5 136t-95.5 122h-129v-258h-129zM216 365h100q78 0 112 36.5t34 109.5q0 75 -31 103t-107 28h-108v-277zM219 828v16l97 140h136v-15l-154 -141h-79z" />
    <glyph glyph-name="racute" unicode="&#x155;" horiz-adv-x="416" 
d="M86 0v547h124v-100q66 103 158 103h39v-116h-49q-33 0 -62.5 -14t-41.5 -25t-44 -43v-352h-124zM118 625v16l98 140h136v-15l-155 -141h-79z" />
    <glyph glyph-name="Rcommaaccent" unicode="&#x156;" horiz-adv-x="671" 
d="M87 0v750h256q126 0 188.5 -55t62.5 -181q0 -152 -130 -216q57 -50 110.5 -144.5t66.5 -145.5v-8h-138q-12 49 -62.5 136t-95.5 122h-129v-258h-129zM216 365h100q78 0 112 36.5t34 109.5q0 75 -31 103t-107 28h-108v-277zM257 -195l44 156h96v-53l-66 -103h-74z" />
    <glyph glyph-name="rcommaaccent" unicode="&#x157;" horiz-adv-x="416" 
d="M86 0v547h124v-100q66 103 158 103h39v-116h-49q-33 0 -62.5 -14t-41.5 -25t-44 -43v-352h-124zM56 -195l44 156h96v-53l-66 -103h-74z" />
    <glyph glyph-name="Rcaron" unicode="&#x158;" horiz-adv-x="671" 
d="M87 0v750h256q126 0 188.5 -55t62.5 -181q0 -152 -130 -216q57 -50 110.5 -144.5t66.5 -145.5v-8h-138q-12 49 -62.5 136t-95.5 122h-129v-258h-129zM216 365h100q78 0 112 36.5t34 109.5q0 75 -31 103t-107 28h-108v-277zM127 993h83l108 -105l111 105h84v-15l-132 -150
h-122l-132 151v14z" />
    <glyph glyph-name="rcaron" unicode="&#x159;" horiz-adv-x="416" 
d="M86 0v547h124v-100q66 103 158 103h39v-116h-49q-33 0 -62.5 -14t-41.5 -25t-44 -43v-352h-124zM54 790h83l108 -105l110 105h84v-16l-131 -149h-122l-132 150v15z" />
    <glyph glyph-name="Sacute" unicode="&#x15a;" horiz-adv-x="610" 
d="M257 -8q-44 0 -106.5 10.5t-95.5 22.5v107h8q106 -31 194 -31h35q136 0 136 110q0 47 -25.5 70.5t-74.5 35.5l-108 29q-160 41 -160 204q0 98 70.5 153t185.5 55h31q39 0 94.5 -9t82.5 -20v-106h-7q-30 9 -82.5 17.5t-87.5 8.5h-29q-128 0 -128 -99q0 -44 23.5 -64.5
t69.5 -33.5l106 -29q80 -23 125 -71t45 -141q0 -106 -71.5 -162.5t-195.5 -56.5h-35zM224 828v16l97 140h136v-15l-154 -141h-79z" />
    <glyph glyph-name="sacute" unicode="&#x15b;" horiz-adv-x="526" 
d="M229 -8q-97 0 -170 20v104h7q86 -19 163 -19q118 0 118 64q0 44 -68 61l-84 19q-138 33 -138 150q0 79 65.5 121.5t173.5 42.5q70 0 148 -16v-104h-7q-92 15 -144 15q-109 0 -109 -57q0 -14 4.5 -23.5t15 -15.5t18.5 -8.5t25 -6.5l74 -17q71 -16 112 -51.5t41 -108.5
q0 -90 -69 -130t-176 -40zM186 625v16l97 140h136v-15l-154 -141h-79z" />
    <glyph glyph-name="Scircumflex" unicode="&#x15c;" horiz-adv-x="610" 
d="M257 -8q-44 0 -106.5 10.5t-95.5 22.5v107h8q106 -31 194 -31h35q136 0 136 110q0 47 -25.5 70.5t-74.5 35.5l-108 29q-160 41 -160 204q0 98 70.5 153t185.5 55h31q39 0 94.5 -9t82.5 -20v-106h-7q-30 9 -82.5 17.5t-87.5 8.5h-29q-128 0 -128 -99q0 -44 23.5 -64.5
t69.5 -33.5l106 -29q80 -23 125 -71t45 -141q0 -106 -71.5 -162.5t-195.5 -56.5h-35zM514 828h-84l-111 106l-108 -106h-83v16l132 149h122l132 -151v-14z" />
    <glyph glyph-name="scircumflex" unicode="&#x15d;" horiz-adv-x="526" 
d="M229 -8q-97 0 -170 20v104h7q86 -19 163 -19q118 0 118 64q0 44 -68 61l-84 19q-138 33 -138 150q0 79 65.5 121.5t173.5 42.5q70 0 148 -16v-104h-7q-92 15 -144 15q-109 0 -109 -57q0 -14 4.5 -23.5t15 -15.5t18.5 -8.5t25 -6.5l74 -17q71 -16 112 -51.5t41 -108.5
q0 -90 -69 -130t-176 -40zM460 625h-84l-110 105l-109 -105h-83v16l132 149h122l132 -151v-14z" />
    <glyph glyph-name="Scedilla" unicode="&#x15e;" horiz-adv-x="610" 
d="M257 -8q-44 0 -106.5 10.5t-95.5 22.5v107h8q106 -31 194 -31h35q136 0 136 110q0 47 -25.5 70.5t-74.5 35.5l-108 29q-160 41 -160 204q0 98 70.5 153t185.5 55h31q39 0 94.5 -9t82.5 -20v-106h-7q-30 9 -82.5 17.5t-87.5 8.5h-29q-128 0 -128 -99q0 -44 23.5 -64.5
t69.5 -33.5l106 -29q80 -23 125 -71t45 -141q0 -106 -71.5 -162.5t-195.5 -56.5h-35zM146 -188v61h93q55 0 55 34q0 33 -51 58v12h66q26 -12 44 -35.5t18 -46.5q0 -42 -31 -62.5t-78 -20.5h-116z" />
    <glyph glyph-name="scedilla" unicode="&#x15f;" horiz-adv-x="526" 
d="M229 -8q-97 0 -170 20v104h7q86 -19 163 -19q118 0 118 64q0 44 -68 61l-84 19q-138 33 -138 150q0 79 65.5 121.5t173.5 42.5q70 0 148 -16v-104h-7q-92 15 -144 15q-109 0 -109 -57q0 -14 4.5 -23.5t15 -15.5t18.5 -8.5t25 -6.5l74 -17q71 -16 112 -51.5t41 -108.5
q0 -90 -69 -130t-176 -40zM100 -188v61h93q55 0 55 34q0 33 -51 58v12h66q26 -12 44 -35.5t18 -46.5q0 -42 -31 -62.5t-78 -20.5h-116z" />
    <glyph glyph-name="Scaron" unicode="&#x160;" horiz-adv-x="610" 
d="M257 -8q-44 0 -106.5 10.5t-95.5 22.5v107h8q106 -31 194 -31h35q136 0 136 110q0 47 -25.5 70.5t-74.5 35.5l-108 29q-160 41 -160 204q0 98 70.5 153t185.5 55h31q39 0 94.5 -9t82.5 -20v-106h-7q-30 9 -82.5 17.5t-87.5 8.5h-29q-128 0 -128 -99q0 -44 23.5 -64.5
t69.5 -33.5l106 -29q80 -23 125 -71t45 -141q0 -106 -71.5 -162.5t-195.5 -56.5h-35zM116 993h83l109 -105l110 105h84v-15l-132 -150h-122l-132 151v14z" />
    <glyph glyph-name="scaron" unicode="&#x161;" horiz-adv-x="526" 
d="M229 -8q-97 0 -170 20v104h7q86 -19 163 -19q118 0 118 64q0 44 -68 61l-84 19q-138 33 -138 150q0 79 65.5 121.5t173.5 42.5q70 0 148 -16v-104h-7q-92 15 -144 15q-109 0 -109 -57q0 -14 4.5 -23.5t15 -15.5t18.5 -8.5t25 -6.5l74 -17q71 -16 112 -51.5t41 -108.5
q0 -90 -69 -130t-176 -40zM74 790h83l109 -105l110 105h84v-16l-132 -149h-122l-132 150v15z" />
    <glyph glyph-name="Tcommaaccent" unicode="&#x162;" horiz-adv-x="601" 
d="M236 0v642h-220v108h569v-108h-221v-642h-128zM164 -188v61h94q54 0 54 34q0 32 -50 58v12h65q27 -12 45 -35.5t18 -46.5q0 -42 -31 -62.5t-79 -20.5h-116z" />
    <glyph glyph-name="tcommaaccent" unicode="&#x163;" horiz-adv-x="413" 
d="M396 0h-84q-98 0 -152 49t-54 148v246h-85v104h85v132h124v-132h150v-104h-150v-221q0 -68 24.5 -93t86.5 -25h55v-104zM180 -188v61h93q55 0 55 34q0 33 -51 58v12h66q26 -12 44 -35.5t18 -46.5q0 -42 -31 -62.5t-78 -20.5h-116z" />
    <glyph glyph-name="Tcaron" unicode="&#x164;" horiz-adv-x="601" 
d="M236 0v642h-220v108h569v-108h-221v-642h-128zM107 993h83l109 -105l110 105h84v-15l-132 -150h-122l-132 151v14z" />
    <glyph glyph-name="tcaron" unicode="&#x165;" horiz-adv-x="413" 
d="M396 0h-84q-98 0 -152 49t-54 148v246h-85v104h85v132h124v-132h150v-104h-150v-221q0 -68 24.5 -93t86.5 -25h55v-104zM270 594l43 156h97v-53l-66 -103h-74z" />
    <glyph glyph-name="Tbar" unicode="&#x166;" horiz-adv-x="601" 
d="M530 345h-166v-345h-128v345h-166v108h166v189h-220v108h569v-108h-221v-189h166v-108z" />
    <glyph glyph-name="tbar" unicode="&#x167;" horiz-adv-x="406" 
d="M380 232h-150v-10q0 -68 24.5 -93t86.5 -25h55v-104h-84q-98 0 -152 49t-54 148v35h-85v104h85v107h-85v104h85v132h124v-132h150v-104h-150v-107h150v-104z" />
    <glyph glyph-name="Utilde" unicode="&#x168;" horiz-adv-x="739" 
d="M370 -8q-136 0 -212 70t-76 202v486h129v-487q0 -162 159 -162q158 0 158 162v487h129v-486q0 -131 -78.5 -201.5t-208.5 -70.5zM197 828v77q45 70 98 70q30 0 79 -36t65 -36q29 0 50 19t44 53h8v-74q-16 -27 -43.5 -50t-58.5 -23q-27 0 -77 36t-67 36q-7 0 -13.5 -1
t-12.5 -4.5l-10.5 -6t-10.5 -8l-9.5 -8.5t-9 -11t-8 -10.5t-8.5 -11.5t-8 -11h-8z" />
    <glyph glyph-name="utilde" unicode="&#x169;" horiz-adv-x="646" 
d="M236 -8q-151 0 -151 182v373h123v-355q0 -50 17.5 -71.5t53.5 -21.5q43 0 125 70l32 27v351h123v-547h-123v94l-33 -30q-80 -72 -167 -72zM151 625v77q44 69 98 69q30 0 79.5 -35.5t65.5 -35.5q20 0 39 12.5t29 24.5t25 34h8v-73q-16 -27 -43 -50t-58 -23q-28 0 -78 36
t-67 36q-7 0 -13.5 -1t-12.5 -4.5l-10.5 -6t-10.5 -8l-9.5 -8.5t-9 -11t-8 -10.5t-8.5 -11.5t-8 -11h-8z" />
    <glyph glyph-name="Umacron" unicode="&#x16a;" horiz-adv-x="739" 
d="M370 -8q-136 0 -212 70t-76 202v486h129v-487q0 -162 159 -162q158 0 158 162v487h129v-486q0 -131 -78.5 -201.5t-208.5 -70.5zM218 828v84h303v-84h-303z" />
    <glyph glyph-name="umacron" unicode="&#x16b;" horiz-adv-x="646" 
d="M236 -8q-151 0 -151 182v373h123v-355q0 -50 17.5 -71.5t53.5 -21.5q43 0 125 70l32 27v351h123v-547h-123v94l-33 -30q-80 -72 -167 -72zM172 625v84h303v-84h-303z" />
    <glyph glyph-name="Ubreve" unicode="&#x16c;" horiz-adv-x="739" 
d="M370 -8q-136 0 -212 70t-76 202v486h129v-487q0 -162 159 -162q158 0 158 162v487h129v-486q0 -131 -78.5 -201.5t-208.5 -70.5zM370 828q-81 0 -125 46t-44 110h60q0 -37 31.5 -59t77.5 -22t77.5 22t31.5 59h59q0 -64 -44 -110t-124 -46z" />
    <glyph glyph-name="ubreve" unicode="&#x16d;" horiz-adv-x="646" 
d="M236 -8q-151 0 -151 182v373h123v-355q0 -50 17.5 -71.5t53.5 -21.5q43 0 125 70l32 27v351h123v-547h-123v94l-33 -30q-80 -72 -167 -72zM323 625q-81 0 -125 46t-44 110h60q0 -37 31.5 -59t77.5 -22t78 22t32 59h58q0 -64 -43.5 -110t-124.5 -46z" />
    <glyph glyph-name="Uring" unicode="&#x16e;" horiz-adv-x="739" 
d="M370 -8q-136 0 -212 70t-76 202v486h129v-487q0 -162 159 -162q158 0 158 162v487h129v-486q0 -131 -78.5 -201.5t-208.5 -70.5zM370 828q-58 0 -91 27.5t-33 74.5q0 45 33 73t91 28t90.5 -27.5t32.5 -73.5t-32.5 -74t-90.5 -28zM370 867q33 0 50 18.5t17 44.5t-17 44
t-50 18t-49.5 -18t-16.5 -44t16.5 -44.5t49.5 -18.5z" />
    <glyph glyph-name="uring" unicode="&#x16f;" horiz-adv-x="646" 
d="M236 -8q-151 0 -151 182v373h123v-355q0 -50 17.5 -71.5t53.5 -21.5q43 0 125 70l32 27v351h123v-547h-123v94l-33 -30q-80 -72 -167 -72zM323 625q-58 0 -91 27.5t-33 74.5q0 45 33 73t91 28t90.5 -27.5t32.5 -73.5t-33 -74t-90 -28zM323 664q33 0 50 18.5t17 44.5
t-17 44t-50 18t-49.5 -18t-16.5 -44t16.5 -44.5t49.5 -18.5z" />
    <glyph glyph-name="Uhungarumlaut" unicode="&#x170;" horiz-adv-x="739" 
d="M370 -8q-136 0 -212 70t-76 202v486h129v-487q0 -162 159 -162q158 0 158 162v487h129v-486q0 -131 -78.5 -201.5t-208.5 -70.5zM375 828v16l107 140h122v-15l-159 -141h-70zM174 828v16l110 140h121v-15l-159 -141h-72z" />
    <glyph glyph-name="uhungarumlaut" unicode="&#x171;" horiz-adv-x="646" 
d="M236 -8q-151 0 -151 182v373h123v-355q0 -50 17.5 -71.5t53.5 -21.5q43 0 125 70l32 27v351h123v-547h-123v94l-33 -30q-80 -72 -167 -72zM328 625v16l108 140h122v-15l-160 -141h-70zM127 625v16l110 140h121v-15l-159 -141h-72z" />
    <glyph glyph-name="Uogonek" unicode="&#x172;" horiz-adv-x="739" 
d="M370 -8q-136 0 -212 70t-76 202v486h129v-487q0 -162 159 -162q158 0 158 162v487h129v-486q0 -131 -78.5 -201.5t-208.5 -70.5zM386 -188q-48 0 -79 20.5t-31 62.5q0 23 18 46.5t45 35.5h64v-12q-50 -26 -50 -58q0 -34 54 -34h94v-61h-115z" />
    <glyph glyph-name="uogonek" unicode="&#x173;" horiz-adv-x="646" 
d="M236 -8q-151 0 -151 182v373h123v-355q0 -50 17.5 -71.5t53.5 -21.5q43 0 125 70l32 27v351h123v-547h-123v94l-33 -30q-80 -72 -167 -72zM514 -188q-48 0 -79 20.5t-31 62.5q0 23 18 46.5t45 35.5h64v-12q-51 -27 -51 -58q0 -34 55 -34h94v-61h-115z" />
    <glyph glyph-name="Wcircumflex" unicode="&#x174;" horiz-adv-x="1054" 
d="M225 0q-54 112 -111.5 321t-86.5 421v8h135q55 -402 154 -643q48 108 90.5 284t68.5 359h112q53 -386 158 -643q45 107 87.5 285.5t67.5 357.5h130v-8q-32 -218 -88.5 -424t-108.5 -318h-166q-78 168 -136 444q-28 -132 -66 -254.5t-69 -189.5h-171zM724 828h-84
l-111 106l-108 -106h-83v16l132 149h122l132 -151v-14z" />
    <glyph glyph-name="wcircumflex" unicode="&#x175;" horiz-adv-x="810" 
d="M182 0q-49 45 -93.5 161t-44.5 245v141h124v-141q0 -102 25.5 -189t62.5 -132q37 45 62 131.5t25 189.5v141h124v-141q0 -103 25 -189.5t62 -131.5q37 45 62.5 132t25.5 189v141h123v-141q0 -127 -46.5 -243t-96.5 -163h-132q-19 20 -48.5 74t-38.5 92q-9 -38 -39.5 -91
t-51.5 -75h-130zM598 625h-84l-111 105l-108 -105h-83v16l132 149h122l132 -151v-14z" />
    <glyph glyph-name="Ycircumflex" unicode="&#x176;" horiz-adv-x="645" 
d="M258 0v295l-240 447v8h133l176 -344l180 344h124v-8l-245 -443v-299h-128zM522 828h-84l-110 106l-108 -106h-83v16l132 149h122l131 -151v-14z" />
    <glyph glyph-name="ycircumflex" unicode="&#x177;" horiz-adv-x="643" 
d="M134 -188v104h104q102 0 148 39.5t46 130.5v27h-4q-100 -50 -174 -50q-79 0 -126 47t-47 142v295h124v-283q0 -95 84 -95q69 0 143 39v339h124v-464q0 -133 -77 -202t-213 -69h-132zM514 625h-84l-111 105l-108 -105h-83v16l132 149h122l132 -151v-14z" />
    <glyph glyph-name="Ydieresis" unicode="&#x178;" horiz-adv-x="645" 
d="M258 0v295l-240 447v8h133l176 -344l180 344h124v-8l-245 -443v-299h-128zM135 810v112h124v-112h-124zM394 810v112h124v-112h-124z" />
    <glyph glyph-name="Zacute" unicode="&#x179;" horiz-adv-x="620" 
d="M43 0v66q91 117 207 295t159 281h-349v108h515v-60q-43 -103 -156.5 -287t-197.5 -295h359v-108h-537zM205 828v16l98 140h135v-15l-154 -141h-79z" />
    <glyph glyph-name="zacute" unicode="&#x17a;" horiz-adv-x="523" 
d="M44 0v83q74 74 155.5 175.5t129.5 184.5h-272v104h418v-83q-30 -71 -117 -186.5t-149 -173.5h273v-104h-438zM156 625v16l98 140h136v-15l-155 -141h-79z" />
    <glyph glyph-name="Zdotaccent" unicode="&#x17b;" horiz-adv-x="620" 
d="M43 0v66q91 117 207 295t159 281h-349v108h515v-60q-43 -103 -156.5 -287t-197.5 -295h359v-108h-537zM248 828v112h124v-112h-124z" />
    <glyph glyph-name="zdotaccent" unicode="&#x17c;" horiz-adv-x="523" 
d="M44 0v83q74 74 155.5 175.5t129.5 184.5h-272v104h418v-83q-30 -71 -117 -186.5t-149 -173.5h273v-104h-438zM199 625v112h124v-112h-124z" />
    <glyph glyph-name="Zcaron" unicode="&#x17d;" horiz-adv-x="620" 
d="M43 0v66q91 117 207 295t159 281h-349v108h515v-60q-43 -103 -156.5 -287t-197.5 -295h359v-108h-537zM117 993h83l109 -105l110 105h84v-15l-132 -150h-122l-132 151v14z" />
    <glyph glyph-name="zcaron" unicode="&#x17e;" horiz-adv-x="523" 
d="M44 0v83q74 74 155.5 175.5t129.5 184.5h-272v104h418v-83q-30 -71 -117 -186.5t-149 -173.5h273v-104h-438zM72 790h83l109 -105l110 105h84v-16l-132 -149h-122l-132 150v15z" />
    <glyph glyph-name="longs" unicode="&#x17f;" horiz-adv-x="354" 
d="M106 0v443h-85v104h85v20q0 88 50 135.5t137 47.5h84v-97h-60q-46 0 -66.5 -21t-20.5 -68v-564h-124z" />
    <glyph glyph-name="florin" unicode="&#x192;" 
d="M31 -188v109h85q64 0 90 30t26 98v286h-121v109h121v70q0 116 62 176t184 60h85v-108h-85q-67 0 -92 -29.5t-25 -98.5v-70h170v-109h-170v-286q0 -116 -63 -176.5t-182 -60.5h-85z" />
    <glyph glyph-name="Scommaaccent" unicode="&#x218;" horiz-adv-x="610" 
d="M257 -8q-44 0 -106.5 10.5t-95.5 22.5v107h8q106 -31 194 -31h35q136 0 136 110q0 47 -25.5 70.5t-74.5 35.5l-108 29q-160 41 -160 204q0 98 70.5 153t185.5 55h31q39 0 94.5 -9t82.5 -20v-106h-7q-30 9 -82.5 17.5t-87.5 8.5h-29q-128 0 -128 -99q0 -44 23.5 -64.5
t69.5 -33.5l106 -29q80 -23 125 -71t45 -141q0 -106 -71.5 -162.5t-195.5 -56.5h-35zM191 -195l44 156h97v-53l-66 -103h-75z" />
    <glyph glyph-name="scommaaccent" unicode="&#x219;" horiz-adv-x="526" 
d="M229 -8q-97 0 -170 20v104h7q86 -19 163 -19q118 0 118 64q0 44 -68 61l-84 19q-138 33 -138 150q0 79 65.5 121.5t173.5 42.5q70 0 148 -16v-104h-7q-92 15 -144 15q-109 0 -109 -57q0 -14 4.5 -23.5t15 -15.5t18.5 -8.5t25 -6.5l74 -17q71 -16 112 -51.5t41 -108.5
q0 -90 -69 -130t-176 -40zM142 -195l44 156h96v-53l-66 -103h-74z" />
    <glyph glyph-name="uni021A" unicode="&#x21a;" horiz-adv-x="601" 
d="M236 0v642h-220v108h569v-108h-221v-642h-128zM206 -195l44 156h97v-53l-67 -103h-74z" />
    <glyph glyph-name="uni021B" unicode="&#x21b;" horiz-adv-x="413" 
d="M396 0h-84q-98 0 -152 49t-54 148v246h-85v104h85v132h124v-132h150v-104h-150v-221q0 -68 24.5 -93t86.5 -25h55v-104zM187 -195l43 156h97v-53l-66 -103h-74z" />
    <glyph glyph-name="circumflex" unicode="&#x2c6;" horiz-adv-x="386" 
d="M386 625h-84l-111 105l-108 -105h-83v16l132 149h122l132 -151v-14z" />
    <glyph glyph-name="caron" unicode="&#x2c7;" horiz-adv-x="386" 
d="M0 790h83l108 -105l111 105h84v-16l-132 -149h-122l-132 150v15z" />
    <glyph glyph-name="breve" unicode="&#x2d8;" horiz-adv-x="337" 
d="M169 625q-81 0 -125 46t-44 110h60q0 -38 31.5 -59.5t77.5 -21.5t77.5 22t31.5 59h59q0 -64 -43.5 -110t-124.5 -46z" />
    <glyph glyph-name="dotaccent" unicode="&#x2d9;" horiz-adv-x="124" 
d="M0 625v112h124v-112h-124z" />
    <glyph glyph-name="ring" unicode="&#x2da;" horiz-adv-x="247" 
d="M124 625q-58 0 -91 27.5t-33 74.5q0 45 33 73t91 28t90.5 -27.5t32.5 -73.5t-32.5 -74t-90.5 -28zM124 664q33 0 49.5 18.5t16.5 44.5t-16.5 44t-49.5 18t-49.5 -18t-16.5 -44t16.5 -44.5t49.5 -18.5z" />
    <glyph glyph-name="ogonek" unicode="&#x2db;" horiz-adv-x="225" 
d="M109 -188q-47 0 -78 20.5t-31 62.5q0 23 18 46.5t44 35.5h65v-12q-51 -27 -51 -58q0 -34 55 -34h94v-61h-116z" />
    <glyph glyph-name="tilde" unicode="&#x2dc;" horiz-adv-x="344" 
d="M0 625v77q44 69 98 69q29 0 78.5 -35.5t65.5 -35.5q20 0 39 12.5t28.5 24t26.5 34.5h8v-73q-16 -27 -43.5 -50t-58.5 -23q-28 0 -77.5 36t-66.5 36q-19 0 -38 -13t-27 -23.5t-25 -35.5h-8z" />
    <glyph glyph-name="hungarumlaut" unicode="&#x2dd;" horiz-adv-x="431" 
d="M201 625v16l108 140h122v-15l-160 -141h-70zM0 625v16l110 140h121v-15l-159 -141h-72z" />
    <glyph glyph-name="Delta" unicode="&#x394;" horiz-adv-x="680" 
d="M20 0v23l264 727h119l265 -727v-23h-648zM168 104h352l-176 527z" />
    <glyph glyph-name="Delta" unicode="&#x2206;" horiz-adv-x="680" 
d="M20 0v23l264 727h119l265 -727v-23h-648zM168 104h352l-176 527z" />
    <glyph glyph-name="Omega" unicode="&#x3a9;" horiz-adv-x="745" 
d="M48 0v88h133q-133 122 -133 295q0 174 88 268t236 94t236.5 -94t88.5 -268q0 -173 -133 -295h133v-88h-259v71q64 50 98 131.5t34 180.5q0 143 -51 215.5t-147 72.5t-147 -72.5t-51 -215.5q0 -99 34.5 -180.5t99.5 -131.5v-71h-260z" />
    <glyph glyph-name="Omega" unicode="&#x2126;" horiz-adv-x="745" 
d="M48 0v88h133q-133 122 -133 295q0 174 88 268t236 94t236.5 -94t88.5 -268q0 -173 -133 -295h133v-88h-259v71q64 50 98 131.5t34 180.5q0 143 -51 215.5t-147 72.5t-147 -72.5t-51 -215.5q0 -99 34.5 -180.5t99.5 -131.5v-71h-260z" />
    <glyph glyph-name="pi" unicode="&#x3c0;" horiz-adv-x="645" 
d="M87 0v547h471v-547h-117v443h-237v-443h-117z" />
    <glyph glyph-name="endash" unicode="&#x2013;" horiz-adv-x="500" 
d="M31 315v104h438v-104h-438z" />
    <glyph glyph-name="emdash" unicode="&#x2014;" horiz-adv-x="1000" 
d="M31 315v104h938v-104h-938z" />
    <glyph glyph-name="quoteleft" unicode="&#x2018;" horiz-adv-x="284" 
d="M53 500v53l108 197h87l-67 -250h-128z" />
    <glyph glyph-name="quoteright" unicode="&#x2019;" horiz-adv-x="284" 
d="M36 500l68 250h127v-53l-109 -197h-86z" />
    <glyph glyph-name="quotesinglbase" unicode="&#x201a;" horiz-adv-x="298" 
d="M29 -125l68 250h128v-53l-110 -197h-86z" />
    <glyph glyph-name="quotedblleft" unicode="&#x201c;" horiz-adv-x="502" 
d="M271 500v53l109 197h86l-68 -250h-127zM53 500v53l108 197h87l-67 -250h-128z" />
    <glyph glyph-name="quotedblright" unicode="&#x201d;" horiz-adv-x="502" 
d="M255 500l66 250h129v-53l-109 -197h-86zM36 500l68 250h127v-53l-109 -197h-86z" />
    <glyph glyph-name="quotedblbase" unicode="&#x201e;" horiz-adv-x="502" 
d="M248 -125l66 250h129v-53l-109 -197h-86zM29 -125l68 250h128v-53l-110 -197h-86z" />
    <glyph glyph-name="dagger" unicode="&#x2020;" horiz-adv-x="554" 
d="M215 -125v568h-152v104h152v203h123v-203h152v-104h-152v-568h-123z" />
    <glyph glyph-name="daggerdbl" unicode="&#x2021;" horiz-adv-x="554" 
d="M338 78v-203h-123v203h-152v103h152v262h-152v104h152v203h123v-203h152v-104h-152v-262h152v-103h-152z" />
    <glyph glyph-name="bullet" unicode="&#x2022;" horiz-adv-x="500" 
d="M250 125q-76 0 -131.5 49.5t-55.5 138.5t55.5 138t131.5 49t132 -49t56 -138t-56 -138.5t-132 -49.5z" />
    <glyph glyph-name="ellipsis" unicode="&#x2026;" horiz-adv-x="871" 
d="M659 0v125h128v-125h-128zM371 0v125h128v-125h-128zM85 0v125h128v-125h-128z" />
    <glyph glyph-name="perthousand" unicode="&#x2030;" horiz-adv-x="1404" 
d="M272 0v14l368 736h66v-14l-366 -736h-68zM246 320q-91 0 -135 52.5t-44 164.5q0 114 43.5 166t135.5 52q91 0 134.5 -52t43.5 -166q0 -112 -44 -164.5t-134 -52.5zM246 395q45 0 62 31t17 111q0 82 -16.5 112.5t-62.5 30.5t-63.5 -30.5t-17.5 -112.5q0 -78 17.5 -110
t63.5 -32zM737 -4q-91 0 -134.5 52t-43.5 165q0 114 43 166t135 52q91 0 134.5 -52t43.5 -166q0 -112 -44 -164.5t-134 -52.5zM737 70q45 0 62 31t17 112t-16.5 111.5t-62.5 30.5t-63.5 -30.5t-17.5 -111.5q0 -79 17.5 -111t63.5 -32zM1172 -4q-91 0 -135 52.5t-44 164.5
q0 114 43.5 166t135.5 52q91 0 134.5 -52t43.5 -166q0 -112 -44 -164.5t-134 -52.5zM1172 70q45 0 62 31t17 112t-17 111.5t-62 30.5q-47 0 -64 -30.5t-17 -111.5q0 -79 17.5 -111t63.5 -32z" />
    <glyph glyph-name="guilsinglleft" unicode="&#x2039;" horiz-adv-x="336" 
d="M271 125l-208 171v81l208 170h10v-107l-130 -104l130 -105v-106h-10z" />
    <glyph glyph-name="guilsinglright" unicode="&#x203a;" horiz-adv-x="336" 
d="M55 125v106l130 105l-130 104v107h9l209 -170v-81l-209 -171h-9z" />
    <glyph glyph-name="fraction" unicode="&#x2044;" horiz-adv-x="8" 
d="M-217 0v14l366 736h68v-14l-366 -736h-68z" />
    <glyph glyph-name="fraction" unicode="&#x2215;" horiz-adv-x="8" 
d="M-217 0v14l366 736h68v-14l-366 -736h-68z" />
    <glyph glyph-name="uni2070" unicode="&#x2070;" horiz-adv-x="412" 
d="M207 320q-91 0 -135 52.5t-44 164.5q0 114 43.5 166t135.5 52q91 0 134.5 -52t43.5 -166q0 -112 -44 -164.5t-134 -52.5zM207 395q45 0 62 31t17 111q0 82 -16.5 112.5t-62.5 30.5t-63.5 -30.5t-17.5 -112.5q0 -78 17.5 -110t63.5 -32z" />
    <glyph glyph-name="uni2074" unicode="&#x2074;" horiz-adv-x="412" 
d="M238 324v83h-211v55q80 122 110 288h102q-26 -144 -106 -270h105v102h99v-102h53v-73h-53v-83h-99z" />
    <glyph glyph-name="uni2075" unicode="&#x2075;" horiz-adv-x="412" 
d="M49 324v74h142q82 0 82 68q0 33 -21 44.5t-65 11.5h-128v228h293v-74h-201v-78h48q172 0 172 -132q0 -66 -47 -104t-133 -38h-142z" />
    <glyph glyph-name="uni2076" unicode="&#x2076;" horiz-adv-x="412" 
d="M204 320q-79 0 -122 37t-43 105v123q0 76 55.5 120.5t154.5 44.5h87v-74h-94q-48 0 -76.5 -21.5t-28.5 -64.5v-5q43 17 84 17q153 0 153 -140q0 -65 -44.5 -103.5t-125.5 -38.5zM207 395q68 0 68 67q0 35 -14.5 50.5t-48.5 15.5q-37 0 -75 -12v-54q0 -67 70 -67z" />
    <glyph glyph-name="uni2077" unicode="&#x2077;" horiz-adv-x="412" 
d="M125 324v60q0 161 136 293h-223v73h338v-55q-73 -73 -112.5 -144t-39.5 -162v-65h-99z" />
    <glyph glyph-name="uni2078" unicode="&#x2078;" horiz-adv-x="412" 
d="M197 320q-164 0 -164 124q0 31 16 52t47 44l8 6q-60 27 -60 95q0 59 43.5 86.5t109.5 27.5h18q154 0 154 -114q0 -49 -54 -89l-4 -4q68 -32 68 -104q0 -58 -47 -91t-117 -33h-18zM200 396h13q68 0 68 50q0 21 -12.5 32.5t-39.5 21.5l-46 18l-17 -13q-34 -25 -34 -59
q0 -50 68 -50zM230 575l5 4q37 31 37 59q0 44 -57 44h-18q-57 0 -57 -44q0 -18 10 -27t35 -18z" />
    <glyph glyph-name="uni2079" unicode="&#x2079;" horiz-adv-x="412" 
d="M76 324v74h95q47 0 75.5 22t28.5 63v5q-41 -16 -85 -16q-152 0 -152 138q0 65 45 103.5t126 38.5q79 0 122 -37t43 -105v-121q0 -75 -55.5 -120t-155.5 -45h-87zM200 544q42 0 75 14v52q0 68 -68 68q-70 0 -70 -68q0 -35 14.5 -50.5t48.5 -15.5z" />
    <glyph glyph-name="uni2080" unicode="&#x2080;" horiz-adv-x="412" 
d="M207 -4q-91 0 -135 52.5t-44 164.5q0 114 43.5 166t135.5 52q91 0 134.5 -52t43.5 -166q0 -112 -44 -164.5t-134 -52.5zM207 70q45 0 62 31t17 112t-16.5 111.5t-62.5 30.5t-63.5 -30.5t-17.5 -111.5q0 -79 17.5 -111t63.5 -32z" />
    <glyph glyph-name="uni2081" unicode="&#x2081;" horiz-adv-x="412" 
d="M185 0v332l-118 -39h-14v76l166 57h63v-426h-97z" />
    <glyph glyph-name="uni2082" unicode="&#x2082;" horiz-adv-x="412" 
d="M44 0v65q0 88 97 138l59 31q21 11 32 18.5t20.5 21t9.5 29.5q0 28 -18.5 38.5t-56.5 10.5h-132v74h145q159 0 159 -122q0 -44 -27 -73t-82 -57l-56 -28q-50 -26 -50 -72h223v-74h-323z" />
    <glyph glyph-name="uni2083" unicode="&#x2083;" horiz-adv-x="412" 
d="M54 0v74h139q38 0 60.5 15t22.5 45q0 52 -80 52h-92v69h116q47 25 47 55q0 23 -18.5 31.5t-55.5 8.5h-137v76h144q165 0 165 -102q0 -52 -53 -88q62 -30 62 -102q0 -64 -48.5 -99t-127.5 -35h-144z" />
    <glyph glyph-name="uni2084" unicode="&#x2084;" horiz-adv-x="412" 
d="M238 0v83h-211v55q80 122 110 288h102q-27 -146 -106 -270h105v102h99v-102h53v-73h-53v-83h-99z" />
    <glyph glyph-name="uni2085" unicode="&#x2085;" horiz-adv-x="412" 
d="M49 0v74h142q82 0 82 68q0 32 -21 44t-65 12h-128v228h293v-74h-201v-79h48q172 0 172 -131q0 -66 -47 -104t-133 -38h-142z" />
    <glyph glyph-name="uni2086" unicode="&#x2086;" horiz-adv-x="412" 
d="M204 -4q-79 0 -122 37t-43 105v123q0 75 55.5 120t154.5 45h87v-74h-94q-48 0 -76.5 -21.5t-28.5 -64.5v-5q41 16 84 16q153 0 153 -139q0 -65 -44.5 -103.5t-125.5 -38.5zM207 70q68 0 68 68q0 35 -14.5 50.5t-48.5 15.5q-40 0 -75 -13v-53q0 -68 70 -68z" />
    <glyph glyph-name="uni2087" unicode="&#x2087;" horiz-adv-x="412" 
d="M125 0v60q0 161 136 293h-223v73h338v-55q-73 -73 -112.5 -144t-39.5 -163v-64h-99z" />
    <glyph glyph-name="uni2088" unicode="&#x2088;" horiz-adv-x="412" 
d="M197 -4q-164 0 -164 124q0 21 9.5 39.5t21 29.5t32.5 27l8 6q-60 27 -60 94q0 59 43.5 87t109.5 28h18q154 0 154 -115q0 -48 -54 -88l-4 -4q68 -32 68 -104q0 -58 -47 -91t-117 -33h-18zM200 71h13q68 0 68 51q0 21 -12.5 32.5t-39.5 21.5l-46 17l-17 -12
q-34 -25 -34 -59q0 -51 68 -51zM230 251l5 4q37 29 37 58q0 44 -57 44h-18q-57 0 -57 -44q0 -17 10.5 -26.5t34.5 -17.5z" />
    <glyph glyph-name="uni2089" unicode="&#x2089;" horiz-adv-x="412" 
d="M76 0v74h95q47 0 75.5 22t28.5 63v5q-43 -17 -85 -17q-152 0 -152 139q0 65 45 103.5t126 38.5q79 0 122 -37t43 -105v-121q0 -76 -55.5 -120.5t-155.5 -44.5h-87zM200 220q40 0 75 13v53q0 68 -68 68q-70 0 -70 -68q0 -35 14.5 -50.5t48.5 -15.5z" />
    <glyph glyph-name="Euro" unicode="&#x20ac;" 
d="M117 412h-86v85l86 1q0 116 83 188t197 72h24q40 0 83.5 -9.5t64.5 -21.5v-106h-7q-61 27 -141 27h-24q-64 0 -106 -37.5t-42 -113.5h264v-85h-264v-75h264v-85l-264 -1q0 -72 43.5 -111t104.5 -39h32q69 0 133 31h7v-105q-73 -35 -140 -35h-32q-56 0 -105 15.5t-89 46
t-63 81.5t-23 117h-86v85h86v75z" />
    <glyph glyph-name="trademark" unicode="&#x2122;" horiz-adv-x="803" 
d="M360 349v401h77l112 -170l105 170h77v-401h-86v237l-83 -125h-34l-81 117v-229h-87zM125 349v330h-98v71h283v-71h-98v-330h-87z" />
    <glyph glyph-name="partialdiff" unicode="&#x2202;" 
d="M315 -8q-121 0 -186 66.5t-65 178.5q0 242 226 242q67 0 143 -37v30q0 84 -47.5 127t-128.5 43h-134v108h123q148 0 231.5 -78t83.5 -209v-226q0 -117 -64 -181t-182 -64zM312 101q121 0 121 136v107q-65 29 -129 29q-59 0 -85.5 -32.5t-26.5 -103.5q0 -136 120 -136z
" />
    <glyph glyph-name="product" unicode="&#x220f;" horiz-adv-x="754" 
d="M86 0v750h582v-750h-129v642h-324v-642h-129z" />
    <glyph glyph-name="summation" unicode="&#x2211;" horiz-adv-x="637" 
d="M406 403v-46l-166 -249h338v-108h-502v62l216 318l-216 307v63h498v-108h-326z" />
    <glyph glyph-name="minus" unicode="&#x2212;" 
d="M94 315v104h437v-104h-437z" />
    <glyph glyph-name="radical" unicode="&#x221a;" horiz-adv-x="641" 
d="M199 0l-183 539v8h105l137 -430l219 602h164v-78h-94l-238 -641h-110z" />
    <glyph glyph-name="infinity" unicode="&#x221e;" horiz-adv-x="598" 
d="M133 188q-60 0 -88.5 45t-28.5 111t28.5 111t88.5 45q35 0 61.5 -17.5t67.5 -68.5l31 -39q40 51 86 88t82 37q60 0 88.5 -44t28.5 -112q0 -66 -28.5 -111t-88.5 -45q-36 0 -66.5 18.5t-66.5 63.5l-35 43q-93 -125 -160 -125zM461 234q70 0 70 110q0 109 -70 109
q-26 0 -67.5 -31.5t-77.5 -73.5l39 -47q56 -67 106 -67zM133 234q56 0 137 106l-36 43q-58 70 -101 70q-70 0 -70 -109q0 -52 20 -81t50 -29z" />
    <glyph glyph-name="integral" unicode="&#x222b;" horiz-adv-x="354" 
d="M-39 -188v104h59q46 0 66 21.5t20 69.5v560q0 88 50 135.5t137 47.5h70v-104h-63q-47 0 -67 -20.5t-20 -67.5v-563q0 -88 -48 -135.5t-135 -47.5h-69z" />
    <glyph glyph-name="approxequal" unicode="&#x2248;" 
d="M94 358v100q16 29 47 49.5t70 20.5q37 0 109 -33t98 -33q39 0 63 16t42 50h8v-99q-16 -29 -47 -50t-70 -21q-37 0 -109 34t-98 34q-62 0 -105 -68h-8zM94 131v98q16 30 47 50.5t70 20.5q37 0 109 -33.5t98 -33.5q39 0 63 16.5t42 50.5h8v-99q-16 -29 -47 -49.5t-70 -20.5
q-37 0 -109 33t-98 33q-64 0 -105 -66h-8z" />
    <glyph glyph-name="notequal" unicode="&#x2260;" 
d="M184 72v12l34 113h-124v103h153l39 126h-192v102h221l39 125h87v-11l-34 -114h124v-102h-154l-38 -126h192v-103h-221l-39 -125h-87z" />
    <glyph glyph-name="lessequal" unicode="&#x2264;" 
d="M523 96l-429 222v98l429 223h8v-114l-316 -158l316 -157v-114h-8zM94 -104v104h437v-104h-437z" />
    <glyph glyph-name="greaterequal" unicode="&#x2265;" 
d="M94 96v114l316 157l-316 158v114h8l429 -223v-98l-429 -222h-8zM94 -104v104h437v-104h-437z" />
    <glyph glyph-name="lozenge" unicode="&#x25ca;" horiz-adv-x="703" 
d="M352 0l-321 375l321 375l320 -375zM352 141l195 234l-195 234l-196 -234z" />
    <glyph glyph-name="dotlessj" unicode="&#xf6be;" horiz-adv-x="317" 
d="M-37 -188v104h32q64 0 89.5 31t25.5 100v396h-87v104h211v-496q0 -120 -58.5 -179.5t-168.5 -59.5h-44z" />
    <glyph glyph-name="commaaccent" unicode="&#xf6c3;" horiz-adv-x="141" 
d="M0 -195l44 156h97v-53l-67 -103h-74z" />
    <glyph glyph-name="a.superior" horiz-adv-x="538" 
d="M190 323q-65 0 -103 36t-38 106v73q0 95 72.5 153.5t175.5 58.5h167v-421h-108v70l-33 -26q-63 -50 -133 -50zM330 457l26 21v193h-53q-68 0 -108 -35.5t-40 -97.5v-63q0 -70 65 -70q43 0 110 52z" />
    <glyph glyph-name="b.superior" horiz-adv-x="538" 
d="M75 329v577h107v-225l33 26q62 49 133 49q65 0 103 -36t38 -106v-73q0 -95 -72 -153.5t-176 -58.5h-166zM208 622l-26 -19v-194h53q68 0 108 35t40 97v63q0 70 -65 70q-46 0 -110 -52z" />
    <glyph glyph-name="c.superior" horiz-adv-x="451" 
d="M261 323q-99 0 -158.5 43.5t-59.5 129.5v80q0 82 63 131t150 49q83 0 146 -29v-123h-90v60q-17 10 -56 10q-48 0 -77.5 -25t-29.5 -76v-65q0 -103 113 -103q66 0 131 25h5v-79q-58 -28 -137 -28z" />
    <glyph glyph-name="d.superior" horiz-adv-x="538" 
d="M190 323q-65 0 -103 36t-38 106v73q0 95 72.5 153.5t175.5 58.5h59v156h108v-577h-108v70l-33 -26q-63 -50 -133 -50zM330 457l26 21v193h-53q-68 0 -108 -35.5t-40 -97.5v-63q0 -70 65 -70q43 0 110 52z" />
    <glyph glyph-name="e.superior" horiz-adv-x="489" 
d="M260 323q-100 0 -158.5 41.5t-58.5 128.5v83q0 84 61.5 132t156.5 48q183 0 183 -128q0 -59 -42.5 -90t-116.5 -31h-136v-16q0 -86 117 -86q65 0 139 24h6v-80q-76 -26 -151 -26zM149 577v-6h120q75 0 75 54q0 52 -83 52q-112 0 -112 -100z" />
    <glyph glyph-name="f.superior" horiz-adv-x="305" 
d="M92 329v342h-74v79h74v16q0 67 42.5 103.5t117.5 36.5h72v-74h-52q-39 0 -56.5 -16t-17.5 -52v-14h113v-79h-113v-342h-106z" />
    <glyph glyph-name="g.superior" horiz-adv-x="538" 
d="M99 184v81h91q89 0 127.5 26.5t38.5 95.5v10l-17 -7q-76 -36 -138 -36q-70 0 -111 37t-41 110v37q0 98 68.5 155t172.5 57h174v-364q0 -102 -65.5 -152t-184.5 -50h-115zM339 462l17 7v202h-60q-67 0 -104 -35t-37 -98v-27q0 -75 73 -75q53 0 111 26z" />
    <glyph glyph-name="h.superior" horiz-adv-x="556" 
d="M377 329v274q0 71 -62 71q-38 0 -107 -54l-26 -20v-271h-107v577h107v-228l27 22q70 56 143 56q130 0 130 -140v-287h-105z" />
    <glyph glyph-name="i.superior" horiz-adv-x="270" 
d="M88 820v86h107v-86h-107zM88 329v342h-74v79h181v-421h-107z" />
    <glyph glyph-name="j.superior" horiz-adv-x="272" 
d="M95 820v86h106v-86h-106zM-32 184v81h28q54 0 76.5 24t22.5 76v306h-74v79h180v-382q0 -184 -195 -184h-38z" />
    <glyph glyph-name="k.superior" horiz-adv-x="502" 
d="M74 329v577h107v-311h41l146 155h117v-6l-176 -183l180 -226v-6h-120l-147 187h-41v-187h-107z" />
    <glyph glyph-name="l.superior" horiz-adv-x="262" 
d="M81 329v498h-75v79h181v-577h-106z" />
    <glyph glyph-name="m.superior" horiz-adv-x="851" 
d="M75 329v421h107v-72l25 22q66 56 143 56q94 0 120 -75h12l25 19q70 56 140 56q131 0 131 -140v-287h-106v274q0 71 -61 71q-43 0 -106 -54l-26 -20v-271h-105v274q0 71 -62 71q-42 0 -105 -54l-25 -20v-271h-107z" />
    <glyph glyph-name="n.superior" horiz-adv-x="556" 
d="M75 329v421h107v-72l27 22q70 56 143 56q130 0 130 -140v-287h-105v274q0 71 -62 71q-38 0 -107 -54l-26 -20v-271h-107z" />
    <glyph glyph-name="o.superior" horiz-adv-x="524" 
d="M262 323q-221 0 -221 220q0 103 56.5 158t164.5 55q221 0 221 -213q0 -220 -221 -220zM262 405q62 0 88.5 35t26.5 103q0 67 -26 99t-89 32q-62 0 -88.5 -32t-26.5 -99q0 -68 27 -103t88 -35z" />
    <glyph glyph-name="p.superior" horiz-adv-x="538" 
d="M75 184v566h107v-69l33 26q62 49 133 49q65 0 103 -36t38 -106v-73q0 -95 -72 -153.5t-176 -58.5h-59v-145h-107zM208 622l-26 -19v-194h53q68 0 108 35t40 97v63q0 70 -65 70q-46 0 -110 -52z" />
    <glyph glyph-name="q.superior" horiz-adv-x="538" 
d="M356 184v215l-33 -26q-63 -50 -133 -50q-65 0 -103 36t-38 106v73q0 95 72.5 153.5t175.5 58.5h167v-566h-108zM330 457l26 21v193h-53q-68 0 -108 -35.5t-40 -97.5v-63q0 -70 65 -70q43 0 110 52z" />
    <glyph glyph-name="r.superior" horiz-adv-x="357" 
d="M74 329v421h107v-76q56 79 135 79h35v-90h-42q-29 0 -54.5 -11t-35.5 -19t-38 -33v-271h-107z" />
    <glyph glyph-name="s.superior" horiz-adv-x="453" 
d="M197 323q-84 0 -146 15v81h6q76 -16 140 -16q101 0 101 50q0 34 -58 47l-72 15q-119 24 -119 115q0 61 56.5 93.5t149.5 32.5q61 0 127 -12v-80h-7q-72 12 -123 12q-94 0 -94 -44q0 -21 14.5 -29t44.5 -14l59 -12q61 -12 96 -39.5t35 -83.5q0 -48 -30.5 -78t-75.5 -41.5
t-104 -11.5z" />
    <glyph glyph-name="t.superior" horiz-adv-x="355" 
d="M268 329q-176 0 -176 152v190h-74v79h74v102h106v-102h129v-79h-129v-171q0 -52 21 -71.5t74 -19.5h47v-80h-72z" />
    <glyph glyph-name="u.superior" horiz-adv-x="556" 
d="M203 323q-130 0 -130 140v287h106v-272q0 -73 61 -73q37 0 108 54l27 21v270h105v-421h-105v72l-28 -22q-71 -56 -144 -56z" />
    <glyph glyph-name="v.superior" horiz-adv-x="471" 
d="M173 329q-44 33 -89.5 124t-45.5 189v108h107v-108q0 -79 27 -145.5t65 -101.5q37 35 63 101.5t26 145.5v108h107v-108q0 -97 -48 -188t-94 -125h-118z" />
    <glyph glyph-name="w.superior" horiz-adv-x="696" 
d="M156 329q-42 35 -80 124t-38 189v108h107v-108q0 -79 21.5 -146t53.5 -101q32 34 53.5 100.5t21.5 146.5v108h106v-108q0 -80 21.5 -146.5t54.5 -100.5q32 34 53.5 101t21.5 146v108h105v-108q0 -99 -40 -188t-82 -125h-113q-17 16 -42.5 57.5t-32.5 70.5
q-8 -29 -34 -69.5t-44 -58.5h-113z" />
    <glyph glyph-name="x.superior" horiz-adv-x="441" 
d="M11 329v6l155 206l-148 203v6h110l96 -132l99 132h105v-6l-151 -199l153 -210v-6h-110l-101 139l-105 -139h-103z" />
    <glyph glyph-name="y.superior" horiz-adv-x="553" 
d="M115 184v81h90q88 0 127 30.5t39 100.5v20h-3q-80 -38 -149 -38q-68 0 -109 36t-41 109v227h108v-218q0 -39 18 -56t54 -17q53 0 122 30v261h107v-357q0 -102 -66 -155.5t-183 -53.5h-114z" />
    <glyph glyph-name="z.superior" horiz-adv-x="450" 
d="M38 329v64q63 57 133 135.5t112 142.5h-234v79h359v-63q-26 -55 -100 -144t-128 -134h235v-80h-377z" />
    <glyph glyph-name="zero.numerator" horiz-adv-x="508" 
d="M254 320q-91 0 -135 52.5t-44 164.5q0 114 43.5 166t135.5 52q91 0 134.5 -52t43.5 -166q0 -112 -44 -164.5t-134 -52.5zM254 395q45 0 62 31t17 111q0 82 -17 112.5t-62 30.5q-47 0 -64 -30.5t-17 -112.5q0 -79 17.5 -110.5t63.5 -31.5z" />
    <glyph glyph-name="one.numerator" horiz-adv-x="508" 
d="M231 324v332l-117 -39h-14v76l166 57h63v-426h-98z" />
    <glyph glyph-name="two.numerator" horiz-adv-x="508" 
d="M91 324v66q0 86 96 137l60 32q20 10 31.5 17.5t21 21t9.5 29.5q0 28 -18.5 38.5t-57.5 10.5h-131v74h145q159 0 159 -122q0 -44 -27 -73t-82 -57l-56 -28q-51 -26 -51 -72h224v-74h-323z" />
    <glyph glyph-name="three.numerator" horiz-adv-x="508" 
d="M101 324v74h139q38 0 60.5 15t22.5 45q0 52 -80 52h-92v69h116q46 25 46 55q0 23 -18 31.5t-55 8.5h-137v76h144q165 0 165 -102q0 -53 -53 -87q62 -33 62 -103q0 -64 -48.5 -99t-127.5 -35h-144z" />
    <glyph glyph-name="four.numerator" horiz-adv-x="508" 
d="M285 324v83h-211v55q80 122 110 288h102q-25 -140 -106 -270h105v102h99v-102h53v-73h-53v-83h-99z" />
    <glyph glyph-name="five.numerator" horiz-adv-x="508" 
d="M96 324v74h142q82 0 82 68q0 33 -21 44.5t-65 11.5h-129v228h293v-74h-200v-78h48q172 0 172 -132q0 -66 -47 -104t-133 -38h-142z" />
    <glyph glyph-name="six.numerator" horiz-adv-x="508" 
d="M251 320q-79 0 -122 37t-43 105v123q0 76 55.5 120.5t154.5 44.5h87v-74h-94q-48 0 -76.5 -21.5t-28.5 -64.5v-5q43 17 84 17q153 0 153 -140q0 -65 -44.5 -103.5t-125.5 -38.5zM254 395q68 0 68 67q0 35 -14.5 50.5t-48.5 15.5q-37 0 -75 -12v-54q0 -67 70 -67z" />
    <glyph glyph-name="seven.numerator" horiz-adv-x="508" 
d="M172 324v60q0 161 136 293h-223v73h338v-55q-73 -73 -112.5 -144t-39.5 -162v-65h-99z" />
    <glyph glyph-name="eight.numerator" horiz-adv-x="508" 
d="M244 320q-164 0 -164 124q0 31 16 52.5t47 43.5l7 6q-59 27 -59 95q0 59 43.5 86.5t109.5 27.5h18q154 0 154 -114q0 -49 -54 -89l-5 -4q69 -32 69 -104q0 -58 -47 -91t-117 -33h-18zM247 396h13q68 0 68 50q0 21 -12.5 32.5t-40.5 21.5l-46 18l-16 -13q-34 -25 -34 -59
q0 -50 68 -50zM277 575l5 4q37 31 37 59q0 44 -57 44h-18q-57 0 -57 -44q0 -18 10 -27t34 -18z" />
    <glyph glyph-name="nine.numerator" horiz-adv-x="508" 
d="M123 324v74h95q47 0 75.5 22t28.5 63v5q-41 -16 -85 -16q-152 0 -152 138q0 65 45 103.5t126 38.5q79 0 122 -37t43 -105v-121q0 -75 -55.5 -120t-155.5 -45h-87zM247 544q42 0 75 14v52q0 68 -68 68q-70 0 -70 -68q0 -35 14.5 -50.5t48.5 -15.5z" />
    <glyph glyph-name="zero.denominator" horiz-adv-x="508" 
d="M254 -4q-91 0 -135 52.5t-44 164.5q0 114 43.5 166t135.5 52q91 0 134.5 -52t43.5 -166q0 -112 -44 -164.5t-134 -52.5zM254 70q45 0 62 31t17 112t-17 111.5t-62 30.5q-47 0 -64 -30.5t-17 -111.5q0 -79 17.5 -111t63.5 -32z" />
    <glyph glyph-name="one.denominator" horiz-adv-x="508" 
d="M231 0v332l-117 -39h-14v76l166 57h63v-426h-98z" />
    <glyph glyph-name="two.denominator" horiz-adv-x="508" 
d="M91 0v65q0 87 96 138l60 31q21 11 32 18.5t20.5 21t9.5 29.5q0 28 -18.5 38.5t-57.5 10.5h-131v74h145q159 0 159 -122q0 -44 -27 -73t-82 -57l-56 -28q-51 -26 -51 -72h224v-74h-323z" />
    <glyph glyph-name="three.denominator" horiz-adv-x="508" 
d="M101 0v74h139q38 0 60.5 15t22.5 45q0 52 -80 52h-92v69h116q46 25 46 55q0 23 -18 31.5t-55 8.5h-137v76h144q165 0 165 -102q0 -52 -53 -88q62 -31 62 -102q0 -64 -48.5 -99t-127.5 -35h-144z" />
    <glyph glyph-name="four.denominator" horiz-adv-x="508" 
d="M285 0v83h-211v55q80 122 110 288h102q-26 -143 -106 -270h105v102h99v-102h53v-73h-53v-83h-99z" />
    <glyph glyph-name="five.denominator" horiz-adv-x="508" 
d="M96 0v74h142q82 0 82 68q0 32 -21 44t-65 12h-129v228h293v-74h-200v-79h48q172 0 172 -131q0 -66 -47 -104t-133 -38h-142z" />
    <glyph glyph-name="six.denominator" horiz-adv-x="508" 
d="M251 -4q-79 0 -122 37t-43 105v123q0 75 55.5 120t154.5 45h87v-74h-94q-48 0 -76.5 -21.5t-28.5 -64.5v-5q41 16 84 16q153 0 153 -139q0 -65 -44.5 -103.5t-125.5 -38.5zM254 70q68 0 68 68q0 35 -14.5 50.5t-48.5 15.5q-40 0 -75 -13v-53q0 -68 70 -68z" />
    <glyph glyph-name="seven.denominator" horiz-adv-x="508" 
d="M172 0v60q0 161 136 293h-223v73h338v-55q-73 -73 -112.5 -144t-39.5 -163v-64h-99z" />
    <glyph glyph-name="eight.denominator" horiz-adv-x="508" 
d="M244 -4q-164 0 -164 124q0 31 16 52t47 44l7 6q-59 27 -59 94q0 59 43.5 87t109.5 28h18q154 0 154 -115q0 -48 -54 -88l-5 -4q69 -32 69 -104q0 -58 -47 -91t-117 -33h-18zM247 71h13q68 0 68 51q0 21 -13 32.5t-40 21.5l-46 17l-16 -12q-34 -25 -34 -59q0 -51 68 -51z
M277 251l5 4q37 29 37 58q0 44 -57 44h-18q-57 0 -57 -44q0 -17 10.5 -26.5t33.5 -17.5z" />
    <glyph glyph-name="nine.denominator" horiz-adv-x="508" 
d="M123 0v74h95q47 0 75.5 22t28.5 63v5q-43 -17 -85 -17q-152 0 -152 139q0 65 45 103.5t126 38.5q79 0 122 -37t43 -105v-121q0 -76 -55.5 -120.5t-155.5 -44.5h-87zM247 220q40 0 75 13v53q0 68 -68 68q-70 0 -70 -68q0 -35 14.5 -50.5t48.5 -15.5z" />
    <glyph glyph-name="Gcedilla" horiz-adv-x="716" 
d="M406 -8q-166 0 -259.5 91.5t-93.5 247.5v93q0 163 105 248.5t271 85.5q119 0 213 -37v-106h-8q-102 34 -208 34q-111 0 -176.5 -55t-65.5 -170v-93q0 -108 59.5 -169t162.5 -61h35q48 0 83 10v166h-135v109h253v-353q-32 -14 -90.5 -27.5t-110.5 -13.5h-35zM291 -195
l44 156h97v-53l-67 -103h-74z" />
    <glyph glyph-name="gcedilla" horiz-adv-x="626" 
d="M114 -188v104h108q102 0 147.5 34.5t45.5 123.5v15l-21 -10q-7 -3 -25.5 -12t-30 -13.5t-29.5 -10.5t-36.5 -9t-38.5 -3q-81 0 -129 49t-48 143v48q0 127 80 201.5t200 74.5h202v-474q0 -131 -76 -196t-214 -65h-135zM395 172l20 10v261h-71q-78 0 -120.5 -45t-42.5 -127
v-36q0 -97 84 -97q58 0 130 34zM422 750l-44 -156h-97v52l67 104h74z" />
    <glyph glyph-name="Kcedilla" horiz-adv-x="688" 
d="M87 0v750h129v-307h44l259 307h141v-8l-298 -346l311 -388v-8h-149l-269 338h-39v-338h-129zM242 -195l44 156h97v-53l-67 -103h-74z" />
    <glyph glyph-name="kcedilla" horiz-adv-x="584" 
d="M86 0v750h124v-405h48l170 202h136v-8l-205 -238l210 -293v-8h-140l-171 242h-48v-242h-124zM210 -195l44 156h97v-53l-67 -103h-74z" />
    <glyph glyph-name="Lcedilla" horiz-adv-x="537" 
d="M283 0q-97 0 -146.5 52.5t-49.5 150.5v547h129v-539q0 -54 22 -78.5t69 -24.5h207v-108h-231zM198 -195l44 156h97v-53l-67 -103h-74z" />
    <glyph glyph-name="lcedilla" horiz-adv-x="305" 
d="M94 0v646h-87v104h211v-750h-124zM62 -195l44 156h97v-53l-66 -103h-75z" />
    <glyph glyph-name="Ncedilla" horiz-adv-x="758" 
d="M86 0v750h103l354 -511v511h129v-750h-105l-352 511v-511h-129zM289 -195l44 156h97v-53l-67 -103h-74z" />
    <glyph glyph-name="ncedilla" horiz-adv-x="646" 
d="M87 0v547h124v-94l32 29q81 73 166 73q153 0 153 -182v-373h-124v354q0 51 -18 72.5t-53 21.5q-45 0 -125 -70l-31 -26v-352h-124zM226 -195l44 156h96v-53l-66 -103h-74z" />
    <glyph glyph-name="Rcedilla" horiz-adv-x="671" 
d="M87 0v750h256q126 0 188.5 -55t62.5 -181q0 -152 -130 -216q57 -50 110.5 -144.5t66.5 -145.5v-8h-138q-12 49 -62.5 136t-95.5 122h-129v-258h-129zM216 365h100q78 0 112 36.5t34 109.5q0 75 -31 103t-107 28h-108v-277zM257 -195l44 156h96v-53l-66 -103h-74z" />
    <glyph glyph-name="rcedilla" horiz-adv-x="416" 
d="M86 0v547h124v-100q66 103 158 103h39v-116h-49q-33 0 -62.5 -14t-41.5 -25t-44 -43v-352h-124zM56 -195l44 156h96v-53l-66 -103h-74z" />
    <glyph glyph-name="caronquoteleft" horiz-adv-x="141" 
d="M141 750l-44 -156h-97v52l66 104h75z" />
    <glyph glyph-name="caronquoteright" horiz-adv-x="141" 
d="M0 594l44 156h97v-53l-67 -103h-74z" />
    </font>
</defs>
</svg>
